<?xml version="1.0" standalone="no"?>
<!DOCTYPE svg PUBLIC "-//W3C//DTD SVG 1.1//EN" "http://www.w3.org/Graphics/SVG/1.1/DTD/svg11.dtd" >
<svg>
<metadata>
Created by FontForge 20120731 at Thu Nov 12 13:07:00 2015
 By root
(C) 2003 Bitstream Inc. &#38; Font Diner.  All Rights Reserved. Designed by Stuart Sandler.  http://www.fontdiner.com/ ROE
</metadata>
<defs>
<font id="GrilledCheeseBTNWideBlk" horiz-adv-x="1706" >
  <font-face 
    font-family="GrilledCheese BTN Wide Blk"
    font-weight="400"
    font-stretch="normal"
    units-per-em="2048"
    panose-1="2 11 10 5 6 4 2 4 2 6"
    ascent="1638"
    descent="-410"
    x-height="1057"
    cap-height="1395"
    bbox="-389 -799 3711 2025"
    underline-thickness="41"
    underline-position="-252"
    unicode-range="U+0020-F002"
  />
<missing-glyph horiz-adv-x="1024" 
d="M128 0v1812h768v-1812h-768zM256 128h512v1556h-512v-1556z" />
    <glyph glyph-name=".notdef" horiz-adv-x="1024" 
d="M128 0v1812h768v-1812h-768zM256 128h512v1556h-512v-1556z" />
    <glyph glyph-name=".null" horiz-adv-x="0" 
 />
    <glyph glyph-name="nonmarkingreturn" horiz-adv-x="512" 
 />
    <glyph glyph-name="space" unicode=" " horiz-adv-x="512" 
 />
    <glyph glyph-name="exclam" unicode="!" horiz-adv-x="1040" 
d="M856 1425l-25 -1024q0 -24 -38 -24l-549 4q-40 0 -39 25l37 1019q1 25 39 25h534q42 0 41 -25zM850 117q0 -87 -109 -134q-90 -38 -221 -38q-133 0 -225 39q-111 48 -111 139q0 85 108 131q91 39 222 39t225 -41q111 -48 111 -135z" />
    <glyph glyph-name="quotedbl" unicode="&#x22;" horiz-adv-x="1343" 
d="M1264 1415l-27 -602q-1 -24 -41 -25l-399 -2q-17 0 -29.5 8.5t-11.5 18.5l16 606q1 25 41 25l410 -4q42 -1 41 -25zM588 1415l-23 -602q-1 -24 -41 -25l-403 -2q-17 0 -29 8.5t-12 18.5l18 606q1 25 39 25l414 -4q38 -1 37 -25z" />
    <glyph glyph-name="numbersign" unicode="#" horiz-adv-x="1575" 
d="M1581 1104l-100 -270h-252l-76 -213h258l-100 -271h-254l-131 -366h-289l131 366h-227l-131 -366h-289l131 366h-258l100 271h254l74 213h-258l98 270h258l129 366h289l-129 -366h227l129 366h289l-129 -366h256zM946 834h-239l-78 -213h239z" />
    <glyph glyph-name="dollar" unicode="$" horiz-adv-x="1689" 
d="M1610 436q0 -285 -672 -309l-4 -121q-1 -22 -65 -27q-46 -1 -93 -2q-17 0 -30 7t-13 18l2 125l-12 2q-162 9 -330 50q-185 46 -289 110q-14 9 -14 18q0 7 14 17l252 159q13 9 27 9q11 0 23 -5q198 -68 329 -92l4 207q-302 52 -438 107q-221 88 -221 235q0 122 241 214
q197 75 424 93v129q0 26 43 25h101q66 -4 65 -27l-4 -125h15q151 0 330.5 -46.5t289.5 -114.5q14 -9 14 -19q0 -13 -119 -90q-73 -46 -147 -92q-12 -8 -30 -8q-10 0 -21 4q-189 69 -336 92l-2 -205q299 -62 429 -113q237 -93 237 -225zM741 819v172q-153 -13 -153 -84
q0 -47 153 -88zM1102 473q0 51 -162 90v-180q162 15 162 90z" />
    <glyph glyph-name="percent" unicode="%" horiz-adv-x="2650" 
d="M2570 377q0 -146 -143 -252q-152 -113 -385 -113q-275 0 -431 103q-151 100 -151 268q0 166 158 274q165 113 434 113q236 0 385 -128q133 -115 133 -265zM2277 1417q0 -8 -6 -14l-1495 -1368q-13 -12 -31 -12l-309 -9q-43 -1 -43 25q0 9 6 14l1495 1381q14 12 33 12
l309 -4q41 -1 41 -25zM1190 1053q0 -146 -143 -252q-152 -113 -385 -113q-275 0 -431 103q-151 100 -151 268q0 166 158 274q165 113 434 113q236 0 385 -128q133 -115 133 -265zM2251 373q0 65 -60 116q-66 58 -170 58q-103 0 -168 -58q-59 -51 -59 -116q0 -66 59 -118
q65 -58 168 -58q104 0 170 58q60 52 60 118zM870 1049q0 65 -59 116q-67 58 -170 58t-169 -58q-58 -51 -58 -116q0 -66 58 -118q66 -59 169 -59t170 59q59 52 59 118z" />
    <glyph glyph-name="ampersand" unicode="&#x26;" horiz-adv-x="2318" 
d="M2236 440q0 -19 -119 -87q-106 -62 -155 -81l188 -90q13 -6 13 -18q0 -13 -11 -19q-261 -155 -278 -155q-13 0 -264 127q-320 -131 -764 -131q-303 0 -520 90q-246 102 -246 276q0 137 137 244q132 103 348 147q-131 70 -215 154q-98 98 -98 188q0 223 294 326
q233 82 625 82q326 0 571 -85q296 -103 296 -286q0 -144 -271 -296q-209 -117 -487 -197l332 -168q107 32 297 153q16 11 28 11q18 0 31 -9l256 -157q12 -8 12 -19zM1407 1042q0 45 -82 74q-71 25 -149 25q-121 0 -219 -27q-128 -34 -128 -98q0 -93 111 -160
q467 112 467 186zM1217 344l-336 164q-179 -36 -179 -119q0 -96 211 -96q124 0 304 51z" />
    <glyph glyph-name="quotesingle" unicode="'" horiz-adv-x="668" 
d="M588 1415l-23 -602q-1 -24 -41 -25l-403 -2q-17 0 -29 8.5t-12 18.5l18 606q1 25 39 25l414 -4q38 -1 37 -25z" />
    <glyph glyph-name="parenleft" unicode="(" horiz-adv-x="900" 
d="M813 1456q0 -2 -4 -8q-211 -335 -211 -711q0 -382 164 -727q2 -3 4 -8q0 -24 -41 -25l-336 -6q-24 0 -39 15q-129 129 -201 374q-61 203 -61 392q0 185 66 374q79 229 225 349q15 12 37 12l356 -6q41 -1 41 -25z" />
    <glyph glyph-name="parenright" unicode=")" horiz-adv-x="900" 
d="M813 752q0 -189 -60 -392q-73 -245 -202 -374q-15 -15 -41 -15l-336 6q-39 1 -39 25l2 8q166 427 166 727q0 372 -213 711q-2 3 -2 8q0 24 39 25l356 6q22 0 37 -12q146 -120 226 -349q67 -190 67 -374z" />
    <glyph glyph-name="asterisk" unicode="*" horiz-adv-x="1411" 
d="M1329 977q0 -10 -176 -199q-11 -12 -39 -12q-16 0 -27 6l-247 146q69 -203 69 -205q0 -25 -39 -25h-352q-41 0 -41 25q0 1 84 202l-239 -141q-14 -8 -27 -8q-25 0 -37 12q-178 191 -178 199q0 17 26 22l324 66l-319 63q-27 6 -27 25q0 7 188 199q12 12 37 12q17 0 27 -6
l231 -141l-73 200q0 25 43 25l356 -4q41 -1 41 -25q0 6 -88 -194l229 137q14 8 31 8q21 0 33 -12q52 -51 105 -102q85 -85 85 -97q0 -19 -29 -25l-319 -63l322 -66q26 -5 26 -22z" />
    <glyph glyph-name="plus" unicode="+" 
d="M1452 475h-459v-475h-280v475h-459v273h459v473h280v-473h459v-273z" />
    <glyph glyph-name="comma" unicode="," horiz-adv-x="829" 
d="M727 125q0 -134 -138 -239q-118 -91 -214 -91q-33 0 -33 31q0 4 17.5 45.5t17.5 75.5v8q-112 5 -185 44q-90 48 -90 134q0 87 98 132q83 38 212 38t214 -40q101 -48 101 -138z" />
    <glyph glyph-name="hyphen" unicode="-" horiz-adv-x="922" 
d="M842 350q0 -24 -41 -24h-680q-42 0 -41 26l14 279q1 24 41 24h666q41 0 41 -26v-279z" />
    <glyph glyph-name="hyphen" unicode="&#x2010;" horiz-adv-x="922" 
d="M842 350q0 -24 -41 -24h-680q-42 0 -41 26l14 279q1 24 41 24h666q41 0 41 -26v-279z" />
    <glyph glyph-name="period" unicode="." horiz-adv-x="829" 
d="M727 127q0 -88 -99 -133q-83 -39 -210 -39q-130 0 -215 39q-101 48 -101 139q0 86 98 131q84 39 212 39t214 -40q101 -48 101 -136z" />
    <glyph glyph-name="slash" unicode="/" horiz-adv-x="1532" 
d="M1444 1403q0 -6 -834 -1350q-10 -16 -37 -16l-442 -8q-43 -1 -43 24q0 6 821 1362q10 17 37 17l459 -5q39 0 39 -24z" />
    <glyph glyph-name="zero" unicode="0" horiz-adv-x="2324" 
d="M2277 678q0 -293 -286 -507q-305 -228 -774 -228q-550 0 -865 206q-305 200 -305 537q0 330 320 551q335 229 870 229q475 0 773 -256q267 -230 267 -532zM1618 668q0 127 -114 227q-129 113 -328 113q-200 0 -327 -113q-114 -100 -114 -227q0 -128 114 -229
q127 -113 327 -113q199 0 328 113q114 102 114 229z" />
    <glyph glyph-name="one" unicode="1" horiz-adv-x="903" 
d="M823 1413l-53 -1368q-1 -24 -41 -25l-608 -8q-17 0 -29 8t-12 19l31 1382q0 25 41 25l630 -6q42 -1 41 -27z" />
    <glyph glyph-name="two" unicode="2" horiz-adv-x="2025" 
d="M1978 1053q0 -215 -301 -356q-151 -70 -559 -174q-301 -77 -301 -136h1000q41 0 41 -25v-317q0 -25 -41 -25h-1719q-41 0 -41 25q0 35 -2 113q-2 73 -2 112q0 226 259 388q219 138 601 219q163 34 200 44q142 40 142 80q0 78 -178 78q-141 0 -304 -54q-65 -21 -269 -107
q-10 -5 -31 -5q-16 0 -27 9l-393 299q-6 4 -6 14q0 9 6 14q155 128 419 207.5t525 79.5q438 0 689 -105q292 -123 292 -378z" />
    <glyph glyph-name="three" unicode="3" horiz-adv-x="1958" 
d="M1878 395q0 -238 -313 -348q-250 -88 -674 -88q-252 0 -511 68q-269 71 -423 186q-10 8 -10 16q0 10 10 17l389 268q12 8 31 8q-15 0 214 -76.5t386 -76.5q178 0 178 73q0 123 -373 123q-24 0 -73.5 -2t-73.5 -2q-43 0 -43 25v301q0 24 43 24q19 0 57.5 -1t57.5 -1
q405 0 405 125q0 62 -162 62q-253 0 -594 -146q-9 -4 -26 -4q-19 0 -31 8l-385 275q-10 7 -10 16t10 17q156 116 423 187q257 69 511 69q332 0 638 -115q349 -132 349 -324q0 -222 -334 -352q334 -136 334 -332z" />
    <glyph glyph-name="four" unicode="4" horiz-adv-x="2089" 
d="M2009 348q0 -24 -41 -24h-182l-6 -285q-1 -24 -39 -25l-608 -12q-41 -1 -41 25l-5 297h-1167q-41 0 -41 24q0 5 4 10l856 1053q12 14 37 14l983 9q17 0 29 -7.5t12 -17.5l-10 -758h178q41 0 41 -24v-279zM1087 651v348q-95 -116 -290 -348h290z" />
    <glyph glyph-name="five" unicode="5" horiz-adv-x="2092" 
d="M2011 422q0 -224 -320 -362q-287 -123 -669 -123q-251 0 -510 69q-267 71 -422 187q-10 7 -10 14q0 9 10 16l387 266q15 11 31 11q12 0 27 -6q305 -129 509 -129q99 0 175 33q84 38 84 96q0 194 -564 194q-225 0 -528 -35q-49 0 -49 27l-4 766q0 27 41 27h1591
q41 0 41 -25v-281q0 -24 -41 -24h-920l-8 -176q119 14 244 14q439 0 672 -144.5t233 -414.5z" />
    <glyph glyph-name="six" unicode="6" horiz-adv-x="2146" 
d="M2099 430q0 -235 -290 -355q-249 -104 -650 -104q-504 0 -824.5 193t-320.5 500q0 408 470 626q423 197 1118 197q82 0 88 -23l94 -383q7 -28 -43 -28q-24 0 -72.5 2t-73.5 2q-362 0 -585 -82q-269 -98 -291 -303q332 131 702 131q285 0 477 -100q201 -105 201 -273z
M1454 446q0 50 -66 82q-61 29 -145 29q-230 0 -450 -100q126 -123 403 -123q103 0 173 24q85 31 85 88z" />
    <glyph glyph-name="seven" unicode="7" horiz-adv-x="1837" 
d="M1890 1395q0 -3 -915 -1352q-11 -16 -35 -16l-621 -9q-40 0 -40 25q0 4 708 1049h-899q-41 0 -41 24v279q0 24 41 24h1763q39 0 39 -24z" />
    <glyph glyph-name="eight" unicode="8" horiz-adv-x="2015" 
d="M1968 397q0 -198 -329 -323q-286 -109 -631 -109q-352 0 -634 107q-327 123 -327 325q0 100 98 190q89 82 238 138q-149 56 -238 138q-98 90 -98 190q0 202 327 325q282 107 634 107q349 0 632 -107q328 -125 328 -325q0 -99 -100 -190q-90 -82 -240 -138
q150 -56 240 -138q100 -91 100 -190zM1307 1006q0 54 -129 81q-84 17 -170 17t-171 -17q-128 -27 -128 -81q0 -51 114 -79q87 -22 185 -22q97 0 184 22q115 28 115 79zM1307 473q0 51 -115 79q-87 21 -184 21q-98 0 -185 -21q-114 -28 -114 -79q0 -54 128 -81
q85 -17 171 -17t170 17q129 27 129 81z" />
    <glyph glyph-name="nine" unicode="9" horiz-adv-x="2106" 
d="M2093 797q0 -386 -445 -589q-399 -183 -1056 -183q-104 0 -109 20l-80 334q-6 29 43 29q28 0 84 -2.5t84 -2.5q771 0 813 336q-333 -131 -702 -131q-283 0 -476 101q-202 105 -202 272q0 227 269 372q257 138 630 138q504 0 825.5 -194t321.5 -500zM1354 954
q-127 123 -404 123q-102 0 -172 -24q-86 -30 -86 -88q0 -50 66 -81q61 -28 145 -28q235 0 451 98z" />
    <glyph glyph-name="colon" unicode=":" horiz-adv-x="911" 
d="M768 625q0 -88 -99 -134q-83 -38 -210 -38q-130 0 -215 39q-101 47 -101 139q0 85 98 131q84 39 212 39t214 -41q101 -47 101 -135zM768 127q0 -88 -99 -133q-83 -39 -210 -39q-130 0 -215 39q-101 48 -101 139q0 86 98 131q84 39 212 39t214 -40q101 -48 101 -136z" />
    <glyph glyph-name="semicolon" unicode=";" horiz-adv-x="911" 
d="M768 625q0 -88 -99 -134q-83 -38 -210 -38q-130 0 -215 39q-101 47 -101 139q0 85 98 131q84 39 212 39t214 -41q101 -47 101 -135zM768 125q0 -134 -138 -239q-118 -91 -214 -91q-33 0 -33 31q0 4 17.5 45.5t17.5 75.5v8q-112 5 -185 44q-90 48 -90 134q0 87 98 132
q83 38 212 38t214 -40q101 -48 101 -138z" />
    <glyph glyph-name="less" unicode="&#x3c;" 
d="M1442 -16l-1178 487v281l1178 487v-301l-801 -328l801 -327v-299z" />
    <glyph glyph-name="equal" unicode="=" 
d="M1452 711h-1198v272h1198v-272zM1452 240h-1198v272h1198v-272z" />
    <glyph glyph-name="greater" unicode="&#x3e;" 
d="M1442 471l-1178 -487v299l801 327l-801 328v301l1178 -487v-281z" />
    <glyph glyph-name="question" unicode="?" horiz-adv-x="2122" 
d="M2019 1053q0 -126 -135 -251q-123 -114 -295 -177q-148 -55 -202 -83q-114 -60 -159 -142q-11 -19 -40 -19h-580q-33 0 -33 27q0 126 144 239q121 96 309 158q268 89 268 190q0 84 -178 84q-144 0 -305 -54q-52 -17 -268 -107q-10 -5 -31 -5q-16 0 -27 9l-393 299
q-6 4 -6 14q0 9 6 14q155 128 419 207.5t525 79.5q439 0 689 -106q292 -123 292 -377zM1238 117q0 -87 -108 -134q-91 -38 -221 -38q-133 0 -225 39q-111 48 -111 139q0 85 108 131q91 39 221 39q132 0 225 -41q111 -48 111 -135z" />
    <glyph glyph-name="at" unicode="@" horiz-adv-x="2048" 
d="M1978 764q0 -173 -67 -314.5t-197 -242.5q-145 -113 -328 -113q-112 0 -168 37t-65 117q-61 -83 -127 -117.5t-162 -34.5q-344 0 -344 350q0 234 131 398q141 178 369 178q153 0 221 -111l49 82h242l-156 -626q-3 -14 -4 -19v-12q0 -49 47 -49q151 0 250 168
q84 143 84 305q0 256 -196 399q-175 127 -441 127q-289 0 -491 -141q-322 -225 -322 -619q0 -295 199 -469t536 -174q324 0 586 187l115 -160q-322 -240 -723 -240q-191 0 -354 54q-166 53 -295 157q-297 238 -297 639q0 357 219 617q150 177 362 271.5t461 94.5
q361 0 602 -185q264 -204 264 -554zM1174 688q-7 66 -43.5 104.5t-90.5 38.5q-115 0 -184 -145q-55 -117 -55 -246q0 -151 117 -151q79 0 138 64q50 56 70 141z" />
    <glyph glyph-name="A" unicode="A" horiz-adv-x="2156" 
d="M2142 -49q0 -25 -39 -25l-643 6q-33 1 -39 21l-78 270h-526l-78 -235q-6 -21 -41 -21l-645 -2q-39 0 -39 25v6l527 1390q7 21 41 21h1003q34 0 41 -21zM1245 551l-147 500l-170 -500h317z" />
    <glyph glyph-name="B" unicode="B" horiz-adv-x="2056" 
d="M2009 350q0 -283 -549 -391q-356 -71 -1020 -71q-64 0 -169 1h-146q-41 0 -41 25l-4 1503q0 25 41 25h146q105 1 168 1q665 0 1021 -70q549 -109 549 -392q0 -191 -330 -315q334 -126 334 -316zM1337 954q0 174 -487 174l4 -335q483 20 483 161zM1339 379q0 139 -483 160
l-2 -336q185 0 310 32q175 45 175 144z" />
    <glyph glyph-name="C" unicode="C" horiz-adv-x="2160" 
d="M2079 119q0 -9 -11 -17q-115 -81 -360 -126q-206 -37 -418 -37q-548 0 -889 192q-354 200 -354 537q0 409 467 627q423 198 1122 198q81 0 86 -20l95 -386q6 -26 -43 -26q-25 0 -74 2t-74 2q-369 0 -597 -86q-277 -104 -277 -315q0 -152 160 -235q151 -77 405 -77
q280 0 592 119q16 6 22 6q35 0 41 -20z" />
    <glyph glyph-name="D" unicode="D" horiz-adv-x="2052" 
d="M2005 666q0 -428 -624 -625q-480 -152 -1256 -152q-41 0 -41 25l-4 1503q0 25 41 25q777 0 1258 -152q626 -197 626 -624zM1274 666q0 127 -112 228q-126 116 -326 116v-688q201 0 327 115q111 101 111 229z" />
    <glyph glyph-name="E" unicode="E" horiz-adv-x="1834" 
d="M1753 25q0 -25 -41 -25h-1587q-41 0 -41 25l-4 1384q0 25 41 25h1591q41 0 41 -25v-279q0 -24 -41 -24h-924l-2 -234h736q41 0 41 -24v-279q0 -24 -41 -24h-740l-4 -217h934q41 0 41 -25v-278z" />
    <glyph glyph-name="F" unicode="F" horiz-adv-x="1800" 
d="M1769 1354l-2 -279q0 -25 -45 -24l-919 6l-6 -234l735 -4q41 0 41 -24l-4 -279q-1 -25 -43 -24l-740 4l-8 -519q0 -24 -39 -24l-618 2q-41 0 -41 25l18 1384q1 25 39 25l1594 -9q39 0 38 -26z" />
    <glyph glyph-name="G" unicode="G" horiz-adv-x="2163" 
d="M2083 123q0 -11 -10 -19q-119 -79 -372 -123q-212 -36 -425 -36q-548 0 -883 190q-346 197 -346 533q0 409 467 627q424 198 1122 198q81 0 86 -20l95 -386q6 -26 -43 -26q-24 0 -72.5 2t-73.5 2q-377 0 -605 -90q-271 -107 -271 -324q0 -309 440 -309q110 0 188 14
l-10 174l-295 -4q-17 0 -29 8t-12 19l6 197q1 23 37 24l924 37q44 2 45 -23z" />
    <glyph glyph-name="H" unicode="H" horiz-adv-x="2119" 
d="M2038 1407l-19 -1368q0 -24 -41 -25l-608 -14q-41 -1 -41 25l-2 454h-549l-6 -440q0 -24 -37 -25l-608 -14q-43 -1 -43 25l-4 1384q0 25 41 25l635 -2q41 0 41 -25l-11 -600h541v602q0 25 39 25l633 -2q39 0 39 -25z" />
    <glyph glyph-name="I" unicode="I" horiz-adv-x="903" 
d="M823 1362l-53 -1368q-1 -24 -41 -25l-608 -6q-17 0 -29 7t-12 18l31 1382q0 25 41 25l630 -6q42 -1 41 -27z" />
    <glyph glyph-name="J" unicode="J" horiz-adv-x="2123" 
d="M2042 1331l-31 -782q-24 -610 -981 -610q-950 0 -950 589q0 31 2 79q2 64 2 79q1 27 43 25l635 -41q38 -3 37 -25q-2 -52 -2 -92q0 -123 57 -178.5t186 -55.5q158 0 217 92q37 58 39 175l17 764q0 25 41 24l651 -18q38 -1 37 -25z" />
    <glyph glyph-name="K" unicode="K" horiz-adv-x="2166" 
d="M2136 1317q0 -9 -6 -14l-672 -613q619 -676 619 -684q0 -23 -39 -24l-711 -19q-29 -1 -41 14l-405 525l-37 -4l-8 -443q-1 -23 -37 -24l-672 -25q-37 0 -37 25l-10 1321q0 24 41 24l696 2q40 0 39 -24l-10 -543l520 528q12 13 39 13l694 -11q37 0 37 -24z" />
    <glyph glyph-name="L" unicode="L" horiz-adv-x="1770" 
d="M1741 25q0 -25 -45 -25h-1559q-38 0 -39 25l-18 1343q0 24 41 25l629 8q38 0 38 -25l5 -1048h903q45 0 45 -25v-278z" />
    <glyph glyph-name="M" unicode="M" horiz-adv-x="2623" 
d="M2542 31q1 -23 -37 -25l-563 -22q-41 0 -41 24l-27 797l-348 -756q-9 -18 -41 -18h-346q-29 0 -37 18l-352 756l-27 -797q-1 -26 -45 -24l-557 14q-43 1 -41 27l92 1351q2 25 43 25l651 -2q28 0 37 -17l410 -755l407 755q9 17 39 17l654 2q37 0 38 -25z" />
    <glyph glyph-name="N" unicode="N" horiz-adv-x="2119" 
d="M2038 1358l-19 -1370q0 -22 -37 -23l-585 -14q-26 -1 -37 14l-619 807l-12 -784q0 -22 -41 -23l-561 -14q-43 -1 -43 24l-4 1383q0 27 41 26l608 -2q22 0 33 -14l614 -803l-2 793q0 27 39 26l586 -2q39 0 39 -24z" />
    <glyph glyph-name="O" unicode="O" horiz-adv-x="2324" 
d="M2277 627q0 -293 -286 -507q-305 -229 -774 -229q-550 0 -865 206q-305 200 -305 538q0 330 320 550q335 230 870 230q475 0 773 -256q267 -230 267 -532zM1618 616q0 127 -114 228q-129 112 -328 112q-200 0 -327 -112q-114 -100 -114 -228q0 -127 114 -227
q127 -113 327 -113q199 0 328 113q114 101 114 227z" />
    <glyph glyph-name="P" unicode="P" horiz-adv-x="1978" 
d="M1931 879q0 -265 -344 -425q-309 -143 -762 -151l-6 -307q0 -23 -37 -25l-647 -26q-45 -2 -45 24l-10 1487q0 25 41 25q474 0 809 -27q493 -39 724 -154q277 -138 277 -421zM1290 842q0 114 -133 173q-117 52 -311 52l-10 -432q454 25 454 207z" />
    <glyph glyph-name="Q" unicode="Q" horiz-adv-x="2358" 
d="M2277 627q0 -172 -109 -329q-116 -165 -325 -269q293 -264 293 -269q0 -23 -41 -24l-715 -21q-22 0 -37 13l-182 166q-529 7 -828 216q-286 199 -286 525q0 330 320 550q335 230 870 230q475 0 773 -256q267 -230 267 -532zM1618 616q0 127 -114 228q-129 112 -328 112
q-200 0 -327 -112q-114 -100 -114 -228q0 -127 114 -227q127 -113 327 -113q199 0 328 113q114 101 114 227z" />
    <glyph glyph-name="R" unicode="R" horiz-adv-x="2092" 
d="M2011 -31q0 -23 -39 -24l-661 -17q-24 0 -37 11l-467 385l-8 -342q-1 -24 -37 -25l-627 -25q-45 -1 -45 25l-10 1423q0 18 35 25q131 27 536 27q712 0 1008 -207q215 -151 215 -344q0 -137 -109 -261.5t-295 -203.5l531 -430q10 -9 10 -17zM1180 819q0 87 -111 140
q-99 48 -246 53l-10 -406q367 36 367 213z" />
    <glyph glyph-name="S" unicode="S" horiz-adv-x="2113" 
d="M2032 1153q0 -9 -11 -16l-389 -277q-11 -8 -30 -8q-9 0 -23 6q-334 146 -598 146q-158 0 -158 -64q0 -42 308 -111q403 -90 572 -161q308 -130 308 -322q0 -239 -316 -349q-249 -87 -673 -87q-251 0 -509 69q-268 72 -423 187q-10 7 -10 16q0 10 10 17l387 266q12 8 33 8
q-15 0 214.5 -75.5t387.5 -75.5q178 0 178 71q0 50 -308 107q-406 76 -573 144q-309 127 -309 343q0 190 350 322q306 114 635 114q255 0 512 -67q269 -71 424 -187q11 -7 11 -16z" />
    <glyph glyph-name="T" unicode="T" horiz-adv-x="1888" 
d="M1858 1024q0 -25 -43 -25h-492l14 -1040q1 -24 -41 -25l-628 -8q-39 0 -39 25l-4 1048h-555q-39 0 -39 25v279q0 24 39 24h1745q43 0 43 -24v-279z" />
    <glyph glyph-name="U" unicode="U" horiz-adv-x="2123" 
d="M2042 1288l-31 -782q-24 -608 -981 -608q-950 0 -950 589q0 -73 18 807q1 26 43 25l647 -23q38 -1 37 -24l-28 -762q0 -123 57 -177t186 -54q160 0 218 91q36 56 38 175l17 733q0 24 37 25l651 10q17 0 29 -7t12 -18z" />
    <glyph glyph-name="V" unicode="V" horiz-adv-x="2123" 
d="M2093 1403l-4 -6l-504 -1327q-8 -21 -41 -21h-1003q-34 0 -41 21l-469 1339q0 25 39 25l643 -7q33 0 39 -22l276 -1008l338 1008q7 20 39 20l643 2q45 0 45 -24z" />
    <glyph glyph-name="W" unicode="W" horiz-adv-x="2590" 
d="M2560 1356l-178 -1374q-3 -22 -41 -23l-666 -16q-29 -1 -39 16l-344 598l-327 -596q-11 -19 -41 -18l-639 16q-34 1 -37 21l-217 1386q0 25 39 25h544q39 0 41 -23l101 -881l272 738q7 18 37 18h457q34 0 41 -18l258 -738l110 889q3 24 43 23l549 -17q37 -1 37 -24v-2z
" />
    <glyph glyph-name="X" unicode="X" horiz-adv-x="1998" 
d="M1968 1380q0 -5 -6 -12l-604 -647l604 -658q2 -2 2 -12q0 -23 -37 -24l-600 -15q-25 0 -37 13l-293 311l-288 -311q-12 -13 -37 -13l-602 15q-39 1 -39 24q0 6 6 12l604 658l-604 647q-6 7 -6 12q0 25 39 25h635q25 0 36 -12l256 -281l258 281q12 12 35 12h637
q41 0 41 -25z" />
    <glyph glyph-name="Y" unicode="Y" horiz-adv-x="2210" 
d="M2179 1300q0 -5 -735 -921l10 -404q1 -24 -41 -24l-672 -8q-39 -1 -39 24v412q-671 923 -671 928q0 25 39 24l675 -6q33 0 41 -16l299 -578l338 578q10 16 37 16h680q39 0 39 -25z" />
    <glyph glyph-name="Z" unicode="Z" horiz-adv-x="2052" 
d="M1972 -39q0 -25 -45 -24l-1790 14q-37 0 -39 24l-18 363q-1 8 14 16l1045 609l-1002 14q-37 0 -39 24l-18 345q-1 24 41 24l1810 2q41 0 41 -24v-385q0 -9 -14 -17l-1038 -602l1011 2q41 0 41 -24v-361z" />
    <glyph glyph-name="bracketleft" unicode="[" horiz-adv-x="1266" 
d="M1186 -233q0 -25 -43 -25h-1018q-41 0 -41 25l-4 1789q0 25 41 25l1022 2q43 0 43 -27v-245q0 -25 -43 -25h-424l-10 -1247h434q43 0 43 -25v-247z" />
    <glyph glyph-name="backslash" unicode="\" horiz-adv-x="1532" 
d="M1444 53q0 -25 -39 -24l-449 8q-27 0 -36 16q-832 1341 -832 1350q0 24 39 24l457 5q31 0 41 -17q819 -1353 819 -1362z" />
    <glyph glyph-name="bracketright" unicode="]" horiz-adv-x="1266" 
d="M1186 1556l-6 -1789q0 -25 -41 -25h-1018q-41 0 -41 25v247q0 25 41 25h434l-10 1247h-424q-41 0 -41 25v245q0 27 41 27l1022 -2q43 0 43 -25z" />
    <glyph glyph-name="asciicircum" unicode="^" horiz-adv-x="2048" 
d="M1634 897h-303l-307 309l-309 -309h-303l442 565h338z" />
    <glyph glyph-name="underscore" unicode="_" horiz-adv-x="1024" 
d="M1024 -483h-1024v282h1024v-282z" />
    <glyph glyph-name="grave" unicode="`" 
d="M1227 1192q0 -12 -13 -18l-155 -89q-11 -6 -27 -6q-15 0 -28 8l-512 306q-13 7 -13 18q0 13 13 19l249 120q9 4 27 4t29 -8l424 -340q6 -5 6 -14z" />
    <glyph glyph-name="a" unicode="a" horiz-adv-x="1787" 
d="M1706 676q0 -139 -21 -337q-19 -169 -38 -337q-1 -24 -9 -70q-7 -24 -43 -24l-426 -2q-45 0 -45 26l11 99q-209 -45 -430 -45q-284 0 -456 70q-202 83 -202 247q0 190 334 282q249 68 606 68q82 0 209 -10q2 31 2 55q0 57 -64 96.5t-157 39.5q-89 0 -143 -27
q-31 -15 -65 -50q-26 -28 -46 -30l-498 -41q-51 -4 -51 25q2 3 4 8q80 161 283 253.5t479 92.5q766 0 766 -389zM1176 416q-87 4 -105 4q-352 0 -352 -121q0 -102 256 -102q89 0 180 10z" />
    <glyph glyph-name="b" unicode="b" horiz-adv-x="1867" 
d="M1821 516q0 -222 -219 -364q-222 -144 -580 -144q-167 0 -297 41l4 -131q0 -10 -13 -17.5t-30 -6.5l-512 6q-37 0 -39 24l-88 1569q-1 27 41 27l580 2q40 0 41 -25l6 -469q66 10 155 10q392 0 664 -140q287 -148 287 -382zM1114 455q0 188 -395 190l4 -336
q83 -12 137 -12q254 0 254 158z" />
    <glyph glyph-name="c" unicode="c" horiz-adv-x="1387" 
d="M1339 262l-18 -233q-1 -17 -31 -23q-78 -16 -246 -16q-396 0 -677 117q-320 134 -320 364q0 268 243 425q247 159 681 159q200 0 305 -29q27 -7 27 -22v-342q0 -25 -33 -25q-30 0 -91 4t-92 4q-421 0 -421 -196q0 -173 411 -173q36 0 107.5 6.5t107.5 6.5h8q41 0 39 -27z
" />
    <glyph glyph-name="d" unicode="d" horiz-adv-x="1901" 
d="M1853 1483l-141 -1569q-2 -22 -39 -23l-512 -2q-16 0 -27.5 7.5t-11.5 17.5l2 131q-123 -37 -278 -37q-354 0 -576.5 141.5t-222.5 360.5q0 240 283 388q267 140 667 140q87 0 172 -14l21 471q1 25 43 25l582 -11q41 0 38 -26zM1153 643q-403 0 -403 -192
q0 -154 258 -154q70 0 131 8z" />
    <glyph glyph-name="e" unicode="e" horiz-adv-x="1518" 
d="M1470 39q0 -33 -189 -54q-141 -16 -241 -16q-432 0 -704 142q-289 150 -289 409q0 242 172 428q209 226 578 226q663 0 663 -490q0 -57 -37 -150q-46 -115 -106 -114l-735 16q64 -209 411 -209q145 0 402 52q10 2 12 2q38 0 41 -23q22 -200 22 -219zM1028 711
q0 129 -172 129q-237 0 -278 -244l409 8q16 0 30 48q11 39 11 59z" />
    <glyph glyph-name="f" unicode="f" horiz-adv-x="1296" 
d="M1450 1311q0 -25 -33 -25q-28 0 -86.5 3t-87.5 3q-380 0 -397 -174q-4 -41 -12 -186l362 -12q38 -2 37 -25l-10 -258q-1 -26 -41 -25l-322 11l6 -691q1 -24 -43 -24l-524 2q-42 0 -41 24l35 738l-176 4q-34 1 -37 22q-33 216 -33 215q0 26 43 25l199 -6q-20 249 6 336
q58 192 291 301q225 104 549 104q186 0 288 -24q27 -7 27 -25v-313z" />
    <glyph glyph-name="g" unicode="g" horiz-adv-x="1834" 
d="M1753 1087q9 -489 -12 -894q-10 -190 -13 -219q-11 -128 -38 -218q-59 -192 -287 -301q-223 -106 -547 -106q-190 0 -295 26q-31 8 -31 25v313q0 25 48 25q24 0 79 -4t82 -4q396 0 396 176v145q-125 -26 -269 -26q-365 0 -592 139t-227 362q0 235 267 371
q250 129 642 129q75 0 162 -10v76q0 24 41 24l553 -2q41 0 41 -27zM1128 317l-4 342q-374 -5 -374 -192q0 -154 294 -154q27 0 84 4z" />
    <glyph glyph-name="h" unicode="h" horiz-adv-x="1854" 
d="M1774 551q0 -117 -15 -276q-26 -300 -26 -302q-2 -23 -39 -22l-525 18q-37 2 -36 25q10 499 10 557q0 221 -193 221q-168 0 -248 -80l11 -682q0 -24 -41 -24l-541 -6q-43 -1 -43 24l-8 1651q0 24 41 24h530q41 0 41 -24l6 -649q187 102 410 102q361 0 530 -178
q136 -143 136 -379z" />
    <glyph glyph-name="i" unicode="i" horiz-adv-x="940" 
d="M860 1192q0 -92 -120 -154q-114 -59 -267 -59q-155 0 -271 60q-122 62 -122 155q0 92 120 154q114 59 267 59q155 0 271 -60q122 -62 122 -155zM813 844l-35 -846q-1 -25 -39 -25l-555 -2q-43 0 -43 25l23 854q0 23 45 22l563 -4q42 0 41 -24z" />
    <glyph glyph-name="j" unicode="j" horiz-adv-x="981" 
d="M901 1192q0 -92 -120 -154q-114 -59 -267 -59q-154 0 -269 60q-120 62 -120 155q0 92 119 154q113 59 266 59q155 0 270 -60q121 -62 121 -155zM834 817q0 -460 -17 -702q-8 -125 -15 -180q-12 -101 -36 -179q-59 -192 -285 -301q-221 -106 -544 -106q-200 0 -299 26
q-27 7 -27 25v313q0 25 47 25q25 0 78.5 -4t81.5 -4q401 0 397 176l-20 913q-1 25 43 25l555 -2q41 0 41 -25z" />
    <glyph glyph-name="k" unicode="k" horiz-adv-x="1804" 
d="M1774 -10q0 -24 -37 -25l-588 -14q-22 -1 -35 8l-438 297q22 -319 22 -330q0 -26 -43 -24l-538 16q-38 1 -37 25l37 1546q0 22 41 22l567 13q17 0 29.5 -7.5t11.5 -17.5l-94 -872l368 454q10 12 37 13l561 4q41 0 41 -25q0 -8 -477 -612l565 -455q7 -5 7 -16z" />
    <glyph glyph-name="l" unicode="l" horiz-adv-x="870" 
d="M788 1440l-18 -1370q0 -24 -41 -25l-582 -12q-43 -1 -43 24l-4 1383q0 24 41 24h609q39 0 38 -24z" />
    <glyph glyph-name="m" unicode="m" horiz-adv-x="3003" 
d="M2922 506q-1 -15 -45 -516q-2 -24 -43 -23l-520 21q-41 1 -41 24q17 505 17 525q0 213 -187 213q-257 0 -293 -148q5 -41 -20 -571q-1 -24 -41 -25l-520 -6q-39 0 -39 25l-4 518q-2 229 -199 229q-212 0 -274 -121v-2l26 -608q1 -24 -37 -25l-544 -12q-40 -1 -41 25
l-37 1032q-1 24 41 24l528 7q43 0 43 -25l2 -109q216 152 455 152q391 0 563 -227q123 104 231 148q133 54 318 54q661 0 661 -579z" />
    <glyph glyph-name="n" unicode="n" horiz-adv-x="1881" 
d="M1800 549q0 -111 -12 -262q-13 -143 -25 -287q-2 -26 -43 -25l-524 19q-37 1 -37 24q10 478 10 533q0 221 -192 221q-214 0 -279 -119l15 -610q0 -24 -41 -25l-541 -6q-43 0 -43 25l-8 1032q0 25 41 25h530q41 0 41 -25v-84q199 123 443 123q362 0 531 -179
q134 -142 134 -380z" />
    <glyph glyph-name="o" unicode="o" horiz-adv-x="1693" 
d="M1647 522q0 -232 -175 -380q-197 -169 -563 -169q-400 0 -629 136q-233 137 -233 380q0 251 166 405q195 183 584 183q405 0 633 -156q217 -149 217 -399zM1065 512q0 70 -58 114q-62 48 -173 48q-115 0 -184 -71q-58 -59 -58 -134q0 -162 231 -162q122 0 188 69
q54 56 54 136z" />
    <glyph glyph-name="p" unicode="p" horiz-adv-x="1901" 
d="M1853 516q0 -222 -218 -364q-222 -144 -580 -144q-173 0 -299 41l6 -561q0 -10 -13 -17.5t-30 -7.5l-510 9q-40 0 -41 24l-88 1569q-1 24 41 25l581 4q35 0 40 -26q0 -21 -1 -42q76 12 166 12q391 0 661 -140q285 -148 285 -382zM1149 455q0 97 -118 147q-103 43 -269 43
h-12l2 -336q80 -12 141 -12q256 0 256 158z" />
    <glyph glyph-name="q" unicode="q" horiz-adv-x="1911" 
d="M1831 1073l-137 -1567q-2 -22 -41 -22l-510 -2q-17 0 -29.5 7t-11.5 17l22 539q-124 -37 -278 -37q-354 0 -576.5 141.5t-222.5 360.5q0 240 283 388q268 140 667 140q93 0 168 -12q1 26 1 52q8 35 46 34l582 -12q39 -1 37 -27zM1149 643h-14q-385 0 -385 -192
q0 -154 258 -154q65 0 127 8z" />
    <glyph glyph-name="r" unicode="r" horiz-adv-x="1394" 
d="M1348 799q1 -27 -41 -27q-414 0 -572 -137l53 -625q0 -24 -38 -24l-541 -6q-43 -1 -45 24l-84 1139q-2 24 41 24h528q42 0 43 -22l13 -164q251 127 507 127q124 0 125 -29z" />
    <glyph glyph-name="s" unicode="s" horiz-adv-x="1649" 
d="M1602 915q0 -9 -310 -229q-11 -8 -28 -8q14 0 -168 59.5t-330 59.5q-131 0 -131 -52q0 -35 248 -90q326 -73 460 -129q248 -105 248 -260q0 -348 -792 -348q-198 0 -404 54q-216 55 -338 145q-10 7 -10 18q0 10 10 17l299 204q12 9 31 9q-8 0 174.5 -60.5t308.5 -60.5
q144 0 144 61q0 41 -247 87q-326 62 -459 116q-247 101 -247 274q0 153 279 258q243 93 510 93q199 0 404 -54q214 -57 337 -147q11 -8 11 -17z" />
    <glyph glyph-name="t" unicode="t" horiz-adv-x="1280" 
d="M1233 924l-10 -258q-1 -26 -41 -25l-322 10l6 -690q1 -25 -43 -24l-524 2q-42 0 -41 24l35 737l-176 5q-34 0 -37 22q-33 216 -33 215q0 26 43 25l199 -6l-15 301q0 10 14 17t31 7l510 -2q41 0 41 -24v-3l-36 -296l362 -13q38 -1 37 -24z" />
    <glyph glyph-name="u" unicode="u" horiz-adv-x="1881" 
d="M1800 -29q0 -24 -41 -24h-530q-39 0 -39 24v84q-199 -123 -445 -123q-362 0 -530 178q-135 142 -135 379q0 112 12 263q13 144 25 288q2 27 45 25l524 -21q37 -1 37 -24q-10 -479 -10 -531q0 -221 188 -221q214 0 279 119h2l-13 608q0 24 39 25l541 8q45 1 45 -24z" />
    <glyph glyph-name="v" unicode="v" horiz-adv-x="1938" 
d="M1909 1028l-459 -1008q-8 -18 -39 -18h-917q-34 0 -41 18q-422 1000 -422 1012q0 25 39 25l579 -6q31 -1 37 -19l254 -747l305 747q8 19 41 19l582 2q41 0 41 -25z" />
    <glyph glyph-name="w" unicode="w" horiz-adv-x="2485" 
d="M2456 1036l-168 -1018q-4 -19 -41 -20l-637 -12q-30 -1 -41 14l-326 446l-315 -446q-11 -15 -41 -14l-613 12q-35 1 -38 20l-205 1029q0 22 39 22l518 2q40 0 43 -22l88 -666l266 559q9 19 37 19h438q33 0 41 -19l252 -559l100 672q4 23 41 22l525 -12q37 -1 37 -27v-2z
" />
    <glyph glyph-name="x" unicode="x" horiz-adv-x="1901" 
d="M1870 29q0 -24 -39 -25l-565 -10q-25 -1 -37 10l-279 238l-278 -238q-13 -11 -33 -10l-569 10q-39 1 -39 25q0 9 6 14l567 494l-567 485q-6 5 -6 14q0 25 39 25h602q21 0 33 -10l245 -215l246 215q12 10 33 10h602q39 0 39 -25q0 -9 -6 -14l-568 -485l568 -494
q6 -5 6 -14z" />
    <glyph glyph-name="y" unicode="y" horiz-adv-x="1851" 
d="M1769 1077q0 -610 -12 -868q-10 -210 -12 -234q-11 -141 -39 -231q-60 -192 -287 -300q-222 -106 -547 -106q-195 0 -294 27q-31 8 -31 23v315q0 25 47 25q25 0 79.5 -4.5t82.5 -4.5q397 0 397 175q0 30 -2 81q-2 61 -2 82q-195 -118 -436 -118q-362 0 -531 177
q-135 141 -135 378q0 112 13 264q12 144 24 289q2 24 43 22l524 -18q38 -2 37 -25q-10 -478 -10 -530q0 -224 188 -224q213 0 279 117l-10 690q-1 25 41 25l555 -2q38 0 38 -25z" />
    <glyph glyph-name="z" unicode="z" horiz-adv-x="1777" 
d="M1696 -4q0 -25 -39 -25l-1522 11q-39 0 -41 24q-14 262 -14 268q0 11 14 19l897 471l-856 10q-39 1 -41 25q-14 262 -14 252q0 24 41 24l1536 2q39 0 39 -24v-287q0 -12 -13 -18l-895 -467l869 4q39 0 39 -27v-262z" />
    <glyph glyph-name="braceleft" unicode="{" horiz-adv-x="1024" 
d="M905 -414h-80q-242 0 -331 45q-72 37 -95 116q-14 47 -14 155v258q0 127 -46.5 179t-158.5 52q7 0 -16 -2h-19v283h19q23 -2 16 -2q110 0 157.5 53t47.5 178v258q0 109 14 156q22 80 95 117q90 45 331 45h80v-285q7 0 -22 2h-21q-86 0 -116.5 -30.5t-30.5 -127.5v-239
q0 -129 -46 -186.5t-171 -80.5q124 -23 170.5 -79.5t46.5 -184.5v-241q0 -94 30.5 -125t114.5 -31q-8 0 23 2h22v-285z" />
    <glyph glyph-name="bar" unicode="|" horiz-adv-x="1024" 
d="M653 -483h-280v2048h280v-2048z" />
    <glyph glyph-name="braceright" unicode="}" horiz-adv-x="1024" 
d="M881 389h-19q-23 2 -16 2q-112 0 -158.5 -52t-46.5 -179v-258q0 -109 -14 -157q-23 -78 -97 -116q-84 -43 -315 -43h-94v283h22q29 -2 21 -2q86 0 116.5 30.5t30.5 127.5v241q0 128 46.5 184.5t170.5 79.5q-126 23 -171.5 79t-45.5 186v241q0 97 -30.5 127.5t-116.5 30.5
h-21q-28 -2 -22 -2v285h80q241 0 329 -45q74 -38 97 -116q14 -49 14 -157v-258q0 -125 47.5 -178t157.5 -53q-7 0 16 2h19v-283z" />
    <glyph glyph-name="asciitilde" unicode="~" 
d="M1530 543q-197 -133 -371 -133q-51 0 -112 12q-54 11 -154 45q-203 70 -332 70q-162 0 -383 -158v299q117 73 217 108t191 35q113 0 278 -53q2 0 64 -23q149 -53 235 -53q167 0 367 150v-299z" />
    <glyph glyph-name="Adieresis" unicode="&#xc4;" horiz-adv-x="2156" 
d="M2142 -49q0 -25 -39 -25l-643 6q-33 1 -39 21l-78 270h-526l-78 -235q-6 -21 -41 -21l-645 -2q-39 0 -39 25v6l527 1390q7 21 41 21h1003q34 0 41 -21zM1245 551l-147 500l-170 -500h317zM1728 1673q0 -65 -102 -105q-89 -36 -201 -36t-202 36q-103 40 -103 105t103 107
q91 36 202 36t201 -36q102 -42 102 -107zM1056 1673q0 -65 -102 -105q-89 -36 -201 -36t-202 36q-103 40 -103 105t103 107q91 36 202 36t201 -36q102 -42 102 -107z" />
    <glyph glyph-name="Aring" unicode="&#xc5;" horiz-adv-x="2156" 
d="M2142 -49q0 -25 -39 -25l-643 6q-33 1 -39 21l-78 270h-526l-78 -235q-6 -21 -41 -21l-645 -2q-39 0 -39 25v6l527 1390q7 21 41 21h245q-196 64 -196 184q0 97 135 162q125 59 289 59q163 0 288 -59q136 -65 136 -162q0 -120 -197 -184h303q34 0 41 -21zM1212 1591
q0 33 -54 53q-46 17 -103 17q-58 0 -104 -17q-54 -20 -54 -53t54 -52q46 -17 104 -17q57 0 103 17q54 19 54 52zM1245 551l-147 500l-170 -500h317z" />
    <glyph glyph-name="Ccedilla" unicode="&#xc7;" horiz-adv-x="2160" 
d="M2079 119q0 -9 -11 -17q-115 -81 -360 -126q-206 -37 -418 -37h-37l-82 -127q235 -11 389 -85q175 -83 175 -221q0 -142 -179 -227q-164 -78 -403 -78q-252 0 -461 84q-203 82 -315 223q-2 3 -2 11q0 24 41 24q7 0 18 -4q347 -123 559 -123q234 0 234 138q0 148 -473 159
q-41 1 -41 25q0 12 211 227q-402 60 -634 239q-243 188 -243 464q0 409 467 627q423 198 1122 198q81 0 86 -20l95 -386q6 -26 -43 -26q-25 0 -74 2t-74 2q-369 0 -597 -86q-277 -104 -277 -315q0 -152 160 -235q151 -77 405 -77q280 0 592 119q16 6 22 6q35 0 41 -20z" />
    <glyph glyph-name="Eacute" unicode="&#xc9;" horiz-adv-x="1834" 
d="M1753 25q0 -25 -41 -25h-1587q-41 0 -41 25l-4 1384q0 25 41 25h1591q41 0 41 -25v-279q0 -24 -41 -24h-924l-2 -234h736q41 0 41 -24v-279q0 -24 -41 -24h-740l-4 -217h934q41 0 41 -25v-278zM1429 1862q0 -11 -13 -18l-509 -306q-14 -8 -31 -8q-16 0 -27 6l-155 89
q-13 6 -13 18q0 9 6 14l424 340q11 8 33 8q14 0 23 -4l245 -120q17 -9 17 -19z" />
    <glyph glyph-name="Ntilde" unicode="&#xd1;" horiz-adv-x="2119" 
d="M2038 1358l-19 -1370q0 -22 -37 -23l-585 -14q-26 -1 -37 14l-619 807l-12 -784q0 -22 -41 -23l-561 -14q-43 -1 -43 24l-4 1383q0 27 41 26l608 -2q22 0 33 -14l614 -803l-2 793q0 27 39 26l586 -2q39 0 39 -24zM1547 1557q0 -47 -250 -47q-119 0 -346 43t-346 43
q-23 0 -68.5 -5t-68.5 -5q-43 0 -41 24l18 221q2 26 115 39q74 8 139 8q112 0 325 -38.5t324 -38.5q28 0 81 7t77 7q41 0 41 -25v-233z" />
    <glyph glyph-name="Odieresis" unicode="&#xd6;" horiz-adv-x="2324" 
d="M2277 627q0 -293 -286 -507q-305 -229 -774 -229q-550 0 -865 206q-305 200 -305 538q0 330 320 550q335 230 870 230q475 0 773 -256q267 -230 267 -532zM1618 616q0 127 -114 228q-129 112 -328 112q-200 0 -327 -112q-114 -100 -114 -228q0 -127 114 -227
q127 -113 327 -113q199 0 328 113q114 101 114 227zM1762 1673q0 -65 -102 -105q-89 -36 -201 -36t-202 36q-103 40 -103 105t103 107q91 36 202 36t201 -36q102 -42 102 -107zM1090 1673q0 -65 -102 -105q-89 -36 -201 -36t-202 36q-103 40 -103 105t103 107q91 36 202 36
t201 -36q102 -42 102 -107z" />
    <glyph glyph-name="Udieresis" unicode="&#xdc;" horiz-adv-x="2123" 
d="M2042 1288l-31 -782q-24 -608 -981 -608q-950 0 -950 589q0 -73 18 807q1 26 43 25l647 -23q38 -1 37 -24l-28 -762q0 -123 57 -177t186 -54q160 0 218 91q36 56 38 175l17 733q0 24 37 25l651 10q17 0 29 -7t12 -18zM1728 1612q0 -65 -102 -105q-89 -36 -201 -36
t-202 36q-103 40 -103 105t103 107q91 36 202 36t201 -36q102 -42 102 -107zM1056 1612q0 -65 -102 -105q-89 -36 -201 -36t-202 36q-103 40 -103 105t103 107q91 36 202 36t201 -36q102 -42 102 -107z" />
    <glyph glyph-name="aacute" unicode="&#xe1;" horiz-adv-x="1787" 
d="M1706 676q0 -139 -21 -337q-19 -169 -38 -337q-1 -24 -9 -70q-7 -24 -43 -24l-426 -2q-45 0 -45 26l11 99q-209 -45 -430 -45q-284 0 -456 70q-202 83 -202 247q0 190 334 282q249 68 606 68q82 0 209 -10q2 31 2 55q0 57 -64 96.5t-157 39.5q-89 0 -143 -27
q-31 -15 -65 -50q-26 -28 -46 -30l-498 -41q-51 -4 -51 25q2 3 4 8q80 161 283 253.5t479 92.5q766 0 766 -389zM1176 416q-87 4 -105 4q-352 0 -352 -121q0 -102 256 -102q89 0 180 10zM1496 1513q0 -11 -13 -18l-509 -306q-14 -8 -31 -8q-16 0 -27 6l-155 89q-13 6 -13 18
q0 9 6 14l424 340q11 8 33 8q14 0 23 -4l245 -120q17 -9 17 -19z" />
    <glyph glyph-name="agrave" unicode="&#xe0;" horiz-adv-x="1787" 
d="M1706 676q0 -139 -21 -337q-19 -169 -38 -337q-1 -24 -9 -70q-7 -24 -43 -24l-426 -2q-45 0 -45 26l11 99q-209 -45 -430 -45q-284 0 -456 70q-202 83 -202 247q0 190 334 282q249 68 606 68q82 0 209 -10q2 31 2 55q0 57 -64 96.5t-157 39.5q-89 0 -143 -27
q-31 -15 -65 -50q-26 -28 -46 -30l-498 -41q-51 -4 -51 25q2 3 4 8q80 161 283 253.5t479 92.5q766 0 766 -389zM1176 416q-87 4 -105 4q-352 0 -352 -121q0 -102 256 -102q89 0 180 10zM1361 1274q0 -12 -13 -18l-155 -89q-11 -6 -27 -6q-15 0 -28 8l-512 306q-13 7 -13 18
q0 13 13 19l249 120q9 4 27 4t29 -8l424 -340q6 -5 6 -14z" />
    <glyph glyph-name="acircumflex" unicode="&#xe2;" horiz-adv-x="1787" 
d="M1706 676q0 -139 -21 -337q-19 -169 -38 -337q-1 -24 -9 -70q-7 -24 -43 -24l-426 -2q-45 0 -45 26l11 99q-209 -45 -430 -45q-284 0 -456 70q-202 83 -202 247q0 190 334 282q249 68 606 68q82 0 209 -10q2 31 2 55q0 57 -64 96.5t-157 39.5q-89 0 -143 -27
q-31 -15 -65 -50q-26 -28 -46 -30l-498 -41q-51 -4 -51 25q2 3 4 8q80 161 283 253.5t479 92.5q766 0 766 -389zM1176 416q-87 4 -105 4q-352 0 -352 -121q0 -102 256 -102q89 0 180 10zM1672 1253q0 -11 -117 -119q-11 -10 -37 -10q-10 0 -20 4l-514 215l-492 -203
q-10 -4 -22 -4q-20 0 -31 8l-127 95q-10 7 -10 16q0 10 10 16l477 301q9 6 27 7q328 14 315 14q14 0 27 -8l504 -314q10 -6 10 -18z" />
    <glyph glyph-name="adieresis" unicode="&#xe4;" horiz-adv-x="1787" 
d="M1706 676q0 -139 -21 -337q-19 -169 -38 -337q-1 -24 -9 -70q-7 -24 -43 -24l-426 -2q-45 0 -45 26l11 99q-209 -45 -430 -45q-284 0 -456 70q-202 83 -202 247q0 190 334 282q249 68 606 68q82 0 209 -10q2 31 2 55q0 57 -64 96.5t-157 39.5q-89 0 -143 -27
q-31 -15 -65 -50q-26 -28 -46 -30l-498 -41q-51 -4 -51 25q2 3 4 8q80 161 283 253.5t479 92.5q766 0 766 -389zM1176 416q-87 4 -105 4q-352 0 -352 -121q0 -102 256 -102q89 0 180 10zM1594 1304q0 -65 -102 -105q-89 -36 -201 -36t-202 36q-103 40 -103 105t103 107
q91 36 202 36t201 -36q102 -42 102 -107zM922 1304q0 -65 -102 -105q-89 -36 -201 -36t-202 36q-103 40 -103 105t103 107q91 36 202 36t201 -36q102 -42 102 -107z" />
    <glyph glyph-name="atilde" unicode="&#xe3;" horiz-adv-x="1787" 
d="M1706 676q0 -139 -21 -337q-19 -169 -38 -337q-1 -24 -9 -70q-7 -24 -43 -24l-426 -2q-45 0 -45 26l11 99q-209 -45 -430 -45q-284 0 -456 70q-202 83 -202 247q0 190 334 282q249 68 606 68q82 0 209 -10q2 31 2 55q0 57 -64 96.5t-157 39.5q-89 0 -143 -27
q-31 -15 -65 -50q-26 -28 -46 -30l-498 -41q-51 -4 -51 25q2 3 4 8q80 161 283 253.5t479 92.5q766 0 766 -389zM1176 416q-87 4 -105 4q-352 0 -352 -121q0 -102 256 -102q89 0 180 10zM1547 1229q0 -47 -250 -47q-119 0 -346 43t-346 43q-23 0 -68.5 -5t-68.5 -5
q-43 0 -41 24l18 221q2 26 115 39q74 8 139 8q112 0 325 -38.5t324 -38.5q28 0 81 7t77 7q41 0 41 -25v-233z" />
    <glyph glyph-name="aring" unicode="&#xe5;" horiz-adv-x="1787" 
d="M1706 676q0 -139 -21 -337q-19 -169 -38 -337q-1 -24 -9 -70q-7 -24 -43 -24l-426 -2q-45 0 -45 26l11 99q-209 -45 -430 -45q-284 0 -456 70q-202 83 -202 247q0 190 334 282q249 68 606 68q82 0 209 -10q2 31 2 55q0 57 -64 96.5t-157 39.5q-89 0 -143 -27
q-31 -15 -65 -50q-26 -28 -46 -30l-498 -41q-51 -4 -51 25q2 3 4 8q132 265 551 330q-164 64 -164 174q0 97 135 161q124 60 287 60t289 -60q135 -64 135 -161q0 -111 -176 -176q471 -70 471 -371zM1145 1223q0 33 -54 52q-46 17 -104 17q-57 0 -103 -17q-55 -19 -55 -52
t55 -53q46 -17 103 -17q58 0 104 17q54 20 54 53zM1176 416q-87 4 -105 4q-352 0 -352 -121q0 -102 256 -102q89 0 180 10z" />
    <glyph glyph-name="ccedilla" unicode="&#xe7;" horiz-adv-x="1387" 
d="M1391 -391q0 -142 -179 -227q-164 -78 -403 -78q-252 0 -461 84q-204 82 -315 223q-4 5 -4 10q0 25 41 25q9 0 20 -4q347 -123 557 -123q236 0 236 137q0 149 -473 160q-41 1 -41 24q0 12 190 205q-232 57 -364 159q-148 114 -148 267q0 268 243 425q247 159 681 159
q200 0 305 -29q27 -7 27 -22v-342q0 -25 -33 -25q-30 0 -91 4t-92 4q-421 0 -421 -196q0 -173 411 -173q36 0 107.5 6.5t107.5 6.5h8q41 0 39 -27l-18 -233q-1 -17 -31 -23q-78 -16 -246 -16q-82 0 -164 6l-55 -82q235 -11 390 -85q176 -83 176 -220z" />
    <glyph glyph-name="eacute" unicode="&#xe9;" horiz-adv-x="1518" 
d="M1470 39q0 -33 -189 -54q-141 -16 -241 -16q-432 0 -704 142q-289 150 -289 409q0 242 172 428q209 226 578 226q663 0 663 -490q0 -57 -37 -150q-46 -115 -106 -114l-735 16q64 -209 411 -209q145 0 402 52q10 2 12 2q38 0 41 -23q22 -200 22 -219zM1028 711
q0 129 -172 129q-237 0 -278 -244l409 8q16 0 30 48q11 39 11 59zM1429 1595q0 -11 -13 -18l-509 -306q-14 -8 -31 -8q-16 0 -27 6l-155 89q-13 6 -13 18q0 9 6 14l424 340q11 8 33 8q14 0 23 -4l245 -120q17 -9 17 -19z" />
    <glyph glyph-name="egrave" unicode="&#xe8;" horiz-adv-x="1518" 
d="M1470 39q0 -33 -189 -54q-141 -16 -241 -16q-432 0 -704 142q-289 150 -289 409q0 242 172 428q209 226 578 226q663 0 663 -490q0 -57 -37 -150q-46 -115 -106 -114l-735 16q64 -209 411 -209q145 0 402 52q10 2 12 2q38 0 41 -23q22 -200 22 -219zM1028 711
q0 129 -172 129q-237 0 -278 -244l409 8q16 0 30 48q11 39 11 59zM1261 1335q0 -12 -13 -18l-155 -89q-11 -6 -27 -6q-15 0 -28 8l-512 306q-13 7 -13 18q0 13 13 19l249 120q9 4 27 4t29 -8l424 -340q6 -5 6 -14z" />
    <glyph glyph-name="ecircumflex" unicode="&#xea;" horiz-adv-x="1518" 
d="M1470 39q0 -33 -189 -54q-141 -16 -241 -16q-432 0 -704 142q-289 150 -289 409q0 242 172 428q209 226 578 226q663 0 663 -490q0 -57 -37 -150q-46 -115 -106 -114l-735 16q64 -209 411 -209q145 0 402 52q10 2 12 2q38 0 41 -23q22 -200 22 -219zM1028 711
q0 129 -172 129q-237 0 -278 -244l409 8q16 0 30 48q11 39 11 59zM1538 1294q0 -11 -117 -119q-11 -10 -37 -10q-10 0 -20 4l-514 215l-492 -203q-10 -4 -22 -4q-20 0 -31 8l-127 95q-10 7 -10 16q0 10 10 16l477 301q9 6 27 7q328 14 315 14q14 0 27 -8l504 -314
q10 -6 10 -18z" />
    <glyph glyph-name="edieresis" unicode="&#xeb;" horiz-adv-x="1518" 
d="M1470 39q0 -33 -189 -54q-141 -16 -241 -16q-432 0 -704 142q-289 150 -289 409q0 242 172 428q209 226 578 226q663 0 663 -490q0 -57 -37 -150q-46 -115 -106 -114l-735 16q64 -209 411 -209q145 0 402 52q10 2 12 2q38 0 41 -23q22 -200 22 -219zM1028 711
q0 129 -172 129q-237 0 -278 -244l409 8q16 0 30 48q11 39 11 59zM1493 1427q0 -65 -102 -105q-89 -36 -201 -36t-202 36q-103 40 -103 105t103 107q91 36 202 36t201 -36q102 -42 102 -107zM821 1427q0 -65 -102 -105q-89 -36 -201 -36t-202 36q-103 40 -103 105t103 107
q91 36 202 36t201 -36q102 -42 102 -107z" />
    <glyph glyph-name="iacute" unicode="&#xed;" horiz-adv-x="940" 
d="M813 844l-35 -846q-1 -25 -39 -25l-555 -2q-43 0 -43 25l23 854q0 23 45 22l563 -4q42 0 41 -24zM1059 1350q0 -11 -13 -18l-509 -306q-14 -8 -31 -8q-16 0 -27 6l-155 89q-13 6 -13 18q0 9 6 14l424 340q11 8 33 8q14 0 23 -4l245 -120q17 -9 17 -19z" />
    <glyph glyph-name="igrave" unicode="&#xec;" horiz-adv-x="940" 
d="M813 844l-35 -846q-1 -25 -39 -25l-555 -2q-43 0 -43 25l23 854q0 23 45 22l563 -4q42 0 41 -24zM723 1110q0 -12 -13 -18l-155 -89q-11 -6 -27 -6q-15 0 -28 8l-512 306q-13 7 -13 18q0 13 13 19l249 120q9 4 27 4t29 -8l424 -340q6 -5 6 -14z" />
    <glyph glyph-name="icircumflex" unicode="&#xee;" horiz-adv-x="940" 
d="M813 844l-35 -846q-1 -25 -39 -25l-555 -2q-43 0 -43 25l23 854q0 23 45 22l563 -4q42 0 41 -24zM1202 1090q0 -11 -117 -119q-11 -10 -37 -10q-10 0 -20 4l-514 215l-492 -203q-10 -4 -22 -4q-20 0 -31 8l-127 95q-10 7 -10 16q0 10 10 16l477 301q9 6 27 7
q328 14 315 14q14 0 27 -8l504 -314q10 -6 10 -18z" />
    <glyph glyph-name="idieresis" unicode="&#xef;" horiz-adv-x="940" 
d="M813 844l-35 -846q-1 -25 -39 -25l-555 -2q-43 0 -43 25l23 854q0 23 45 22l563 -4q42 0 41 -24zM1157 1182q0 -65 -102 -105q-89 -36 -201 -36t-202 36q-103 40 -103 105t103 107q91 36 202 36t201 -36q102 -42 102 -107zM485 1182q0 -65 -102 -105q-89 -36 -201 -36
t-202 36q-103 40 -103 105t103 107q91 36 202 36t201 -36q102 -42 102 -107z" />
    <glyph glyph-name="ntilde" unicode="&#xf1;" horiz-adv-x="1881" 
d="M1800 549q0 -111 -12 -262q-13 -143 -25 -287q-2 -26 -43 -25l-524 19q-37 1 -37 24q10 478 10 533q0 221 -192 221q-214 0 -279 -119l15 -610q0 -24 -41 -25l-541 -6q-43 0 -43 25l-8 1032q0 25 41 25h530q41 0 41 -25v-84q199 123 443 123q362 0 531 -179
q134 -142 134 -380zM1514 1311q0 -47 -250 -47q-119 0 -346 43t-346 43q-23 0 -68.5 -5t-68.5 -5q-43 0 -41 24l18 221q2 26 115 39q74 8 139 8q112 0 325 -38.5t324 -38.5q28 0 81 7t77 7q41 0 41 -25v-233z" />
    <glyph glyph-name="oacute" unicode="&#xf3;" horiz-adv-x="1693" 
d="M1647 522q0 -232 -175 -380q-197 -169 -563 -169q-400 0 -629 136q-233 137 -233 380q0 251 166 405q195 183 584 183q405 0 633 -156q217 -149 217 -399zM1065 512q0 70 -58 114q-62 48 -173 48q-115 0 -184 -71q-58 -59 -58 -134q0 -162 231 -162q122 0 188 69
q54 56 54 136zM1429 1513q0 -11 -13 -18l-509 -306q-14 -8 -31 -8q-16 0 -27 6l-155 89q-13 6 -13 18q0 9 6 14l424 340q11 8 33 8q14 0 23 -4l245 -120q17 -9 17 -19z" />
    <glyph glyph-name="ograve" unicode="&#xf2;" horiz-adv-x="1693" 
d="M1647 522q0 -232 -175 -380q-197 -169 -563 -169q-400 0 -629 136q-233 137 -233 380q0 251 166 405q195 183 584 183q405 0 633 -156q217 -149 217 -399zM1065 512q0 70 -58 114q-62 48 -173 48q-115 0 -184 -71q-58 -59 -58 -134q0 -162 231 -162q122 0 188 69
q54 56 54 136zM1227 1274q0 -12 -13 -18l-155 -89q-11 -6 -27 -6q-15 0 -28 8l-512 306q-13 7 -13 18q0 13 13 19l249 120q9 4 27 4t29 -8l424 -340q6 -5 6 -14z" />
    <glyph glyph-name="ocircumflex" unicode="&#xf4;" horiz-adv-x="1693" 
d="M1647 522q0 -232 -175 -380q-197 -169 -563 -169q-400 0 -629 136q-233 137 -233 380q0 251 166 405q195 183 584 183q405 0 633 -156q217 -149 217 -399zM1065 512q0 70 -58 114q-62 48 -173 48q-115 0 -184 -71q-58 -59 -58 -134q0 -162 231 -162q122 0 188 69
q54 56 54 136zM1504 1233q0 -11 -117 -119q-11 -10 -37 -10q-10 0 -20 4l-514 215l-492 -203q-10 -4 -22 -4q-20 0 -31 8l-127 95q-10 7 -10 16q0 10 10 16l477 301q9 6 27 7q328 14 315 14q14 0 27 -8l504 -314q10 -6 10 -18z" />
    <glyph glyph-name="odieresis" unicode="&#xf6;" horiz-adv-x="1693" 
d="M1647 522q0 -232 -175 -380q-197 -169 -563 -169q-400 0 -629 136q-233 137 -233 380q0 251 166 405q195 183 584 183q405 0 633 -156q217 -149 217 -399zM1065 512q0 70 -58 114q-62 48 -173 48q-115 0 -184 -71q-58 -59 -58 -134q0 -162 231 -162q122 0 188 69
q54 56 54 136zM1459 1304q0 -65 -102 -105q-89 -36 -201 -36t-202 36q-103 40 -103 105t103 107q91 36 202 36t201 -36q102 -42 102 -107zM787 1304q0 -65 -102 -105q-89 -36 -201 -36t-202 36q-103 40 -103 105t103 107q91 36 202 36t201 -36q102 -42 102 -107z" />
    <glyph glyph-name="otilde" unicode="&#xf5;" horiz-adv-x="1693" 
d="M1647 522q0 -232 -175 -380q-197 -169 -563 -169q-400 0 -629 136q-233 137 -233 380q0 251 166 405q195 183 584 183q405 0 633 -156q217 -149 217 -399zM1065 512q0 70 -58 114q-62 48 -173 48q-115 0 -184 -71q-58 -59 -58 -134q0 -162 231 -162q122 0 188 69
q54 56 54 136zM1413 1249q0 -47 -250 -47q-119 0 -346 43t-346 43q-23 0 -68.5 -5t-68.5 -5q-43 0 -41 24l18 221q2 26 115 39q74 8 139 8q112 0 325 -38.5t324 -38.5q28 0 81 7t77 7q41 0 41 -25v-233z" />
    <glyph glyph-name="uacute" unicode="&#xfa;" horiz-adv-x="1881" 
d="M1800 -29q0 -24 -41 -24h-530q-39 0 -39 24v84q-199 -123 -445 -123q-362 0 -530 178q-135 142 -135 379q0 112 12 263q13 144 25 288q2 27 45 25l524 -21q37 -1 37 -24q-10 -479 -10 -531q0 -221 188 -221q214 0 279 119h2l-13 608q0 24 39 25l541 8q45 1 45 -24z
M1429 1452q0 -11 -13 -18l-509 -306q-14 -8 -31 -8q-16 0 -27 6l-155 89q-13 6 -13 18q0 9 6 14l424 340q11 8 33 8q14 0 23 -4l245 -120q17 -9 17 -19z" />
    <glyph glyph-name="ugrave" unicode="&#xf9;" horiz-adv-x="1881" 
d="M1800 -29q0 -24 -41 -24h-530q-39 0 -39 24v84q-199 -123 -445 -123q-362 0 -530 178q-135 142 -135 379q0 112 12 263q13 144 25 288q2 27 45 25l524 -21q37 -1 37 -24q-10 -479 -10 -531q0 -221 188 -221q214 0 279 119h2l-13 608q0 24 39 25l541 8q45 1 45 -24z
M1328 1274q0 -12 -13 -18l-155 -89q-11 -6 -27 -6q-15 0 -28 8l-512 306q-13 7 -13 18q0 13 13 19l249 120q9 4 27 4t29 -8l424 -340q6 -5 6 -14z" />
    <glyph glyph-name="ucircumflex" unicode="&#xfb;" horiz-adv-x="1881" 
d="M1800 -29q0 -24 -41 -24h-530q-39 0 -39 24v84q-199 -123 -445 -123q-362 0 -530 178q-135 142 -135 379q0 112 12 263q13 144 25 288q2 27 45 25l524 -21q37 -1 37 -24q-10 -479 -10 -531q0 -221 188 -221q214 0 279 119h2l-13 608q0 24 39 25l541 8q45 1 45 -24z
M1639 1274q0 -11 -117 -119q-11 -10 -37 -10q-10 0 -20 4l-514 215l-492 -203q-10 -4 -22 -4q-20 0 -31 8l-127 95q-10 7 -10 16q0 10 10 16l477 301q9 6 27 7q328 14 315 14q14 0 27 -8l504 -314q10 -6 10 -18z" />
    <glyph glyph-name="udieresis" unicode="&#xfc;" horiz-adv-x="1881" 
d="M1800 -29q0 -24 -41 -24h-530q-39 0 -39 24v84q-199 -123 -445 -123q-362 0 -530 178q-135 142 -135 379q0 112 12 263q13 144 25 288q2 27 45 25l524 -21q37 -1 37 -24q-10 -479 -10 -531q0 -221 188 -221q214 0 279 119h2l-13 608q0 24 39 25l541 8q45 1 45 -24z
M1594 1325q0 -65 -102 -105q-89 -36 -201 -36t-202 36q-103 40 -103 105t103 107q91 36 202 36t201 -36q102 -42 102 -107zM922 1325q0 -65 -102 -105q-89 -36 -201 -36t-202 36q-103 40 -103 105t103 107q91 36 202 36t201 -36q102 -42 102 -107z" />
    <glyph glyph-name="dagger" unicode="&#x2020;" horiz-adv-x="1024" 
d="M997 799h-313v-1026h-346v1026h-315v282h315v394h346v-394h313v-282z" />
    <glyph glyph-name="degree" unicode="&#xb0;" horiz-adv-x="674" 
d="M659 1149q0 -135 -94 -228.5t-229 -93.5t-227 93q-95 93 -95 229t94.5 230t229.5 94t228 -94.5t93 -229.5zM489 1151q0 63 -45 107.5t-108 44.5q-64 0 -107 -43.5t-43 -108.5t43.5 -109.5t108.5 -44.5q63 0 107 45.5t44 108.5z" />
    <glyph glyph-name="cent" unicode="&#xa2;" horiz-adv-x="1538" 
d="M1458 453l-20 -246q-2 -17 -33 -23q-115 -21 -328 -16q3 -35 4 -88q-1 -30 -43 -35q-10 -1 -118 -6q-43 -2 -43 24v119q-356 41 -564 161q-233 134 -233 345q0 243 205 396q209 155 602 192v168q0 26 43 24l129 -4q37 -1 37 -24v-156q189 -4 295 -31q26 -6 26 -22
l-4 -309q0 -25 -39 -25h-8q-38 0 -111.5 6t-111.5 6h-56l-6 -446h52q47 0 139 8t139 8h6q43 0 41 -26zM883 887q-254 -57 -254 -217q0 -141 252 -189z" />
    <glyph glyph-name="sterling" unicode="&#xa3;" horiz-adv-x="2019" 
d="M1937 844q0 -28 -47 -25l-520 33q-38 2 -38 46q0 11 2.5 29t2.5 23q0 199 -209 199q-134 0 -184 -79q-31 -47 -35 -148q-1 -70 -12 -207l430 -4q40 -1 39 -25l-6 -199q-1 -22 -39 -22l-438 4l-11 -193l1022 -53q39 -2 37 -24l-10 -172q-1 -24 -41 -23l-1585 31
q-38 1 -37 26l25 414l-162 2q-37 1 -37 25l-4 194q0 10 12 17.5t29 7.5l174 -2l14 235q32 514 826 514q802 0 802 -497v-127z" />
    <glyph glyph-name="section" unicode="&#xa7;" horiz-adv-x="1024" 
d="M1012 635q0 -203 -174 -273q61 -52 89.5 -113.5t28.5 -135.5q0 -171 -133 -260q-115 -76 -295 -76q-446 0 -450 391h305v-8q0 -64 38 -106t101 -42q45 0 78 23q37 27 37 69t-150 117l-8 4l-153 60q-314 121 -314 370q0 179 176 279q-104 90 -104 237q0 162 108.5 252
t301.5 90q440 0 446 -368h-313q0 65 -33.5 101t-91.5 36q-47 0 -76 -22.5t-29 -59.5t39 -70q34 -28 121 -65l160 -68q148 -62 221.5 -151.5t73.5 -210.5zM725 594q0 61 -168 135q-103 45 -166 78q-96 -54 -96 -121q0 -55 174 -125q101 -40 166 -69q90 32 90 102z" />
    <glyph glyph-name="bullet" unicode="&#x2022;" horiz-adv-x="1208" 
d="M899 762q0 -122 -87.5 -209.5t-209.5 -87.5t-208.5 87.5t-86.5 209.5q0 124 86 209.5t211 85.5q124 0 209.5 -85.5t85.5 -209.5z" />
    <glyph glyph-name="paragraph" unicode="&#xb6;" horiz-adv-x="1024" 
d="M1014 1337h-101v-1337h-202v1337h-140v-1337h-202v784q-158 8 -255 98q-104 94 -104 248q0 165 115 260q107 89 274 89h615v-142z" />
    <glyph glyph-name="germandbls" unicode="&#xdf;" horiz-adv-x="2086" 
d="M2005 403q0 -224 -324 -341q-268 -97 -663 -97q-43 0 -43 25q0 38 6 174q-1 26 4 76q5 17 37 22q28 3 86 10q229 39 229 160q0 106 -219 143q-35 4 -104 13q-38 5 -37 24l8 217q1 18 33.5 22.5t99.5 14.5q219 39 219 142q0 71 -68 117q-71 49 -188 49q-113 0 -196 -62
q-78 -58 -78 -129v-1264q0 -24 -41 -24l-645 2q-41 0 -41 24l10 1252q2 201 323 360q304 152 642 152q363 0 635 -111q311 -127 311 -338q0 -190 -328 -315q332 -126 332 -318z" />
    <glyph glyph-name="registered" unicode="&#xae;" 
d="M1606 741q0 -315 -217 -526q-232 -225 -537 -225q-304 0 -528 223q-222 220 -222 528q0 311 224 537q212 215 526 215q318 0 537 -219q105 -106 161 -242.5t56 -290.5zM1452 743q0 248 -175 423t-423 175q-251 0 -420 -172q-88 -90 -133 -197t-45 -229q0 -245 176 -421.5
t422 -176.5q122 0 229 45t197 134q172 169 172 419zM1233 352h-279l-145 312h-25v-312h-256v813h334q174 0 265.5 -60.5t91.5 -178.5q0 -163 -164 -219zM956 911q0 95 -133 95h-39v-193h54q118 0 118 98z" />
    <glyph glyph-name="copyright" unicode="&#xa9;" 
d="M1606 741q0 -315 -217 -526q-232 -225 -537 -225q-304 0 -528 223q-222 220 -222 528q0 311 224 537q212 215 526 215q318 0 537 -219q105 -106 161 -242.5t56 -290.5zM1452 743q0 248 -175 423t-423 175q-251 0 -420 -172q-88 -90 -133 -197t-45 -229q0 -245 176 -421.5
t422 -176.5q122 0 229 45t197 134q172 169 172 419zM1239 627q-6 -158 -117 -245q-102 -81 -264 -81q-195 0 -306.5 116t-111.5 320q0 192 103 315q109 132 297 132q161 0 263 -69q117 -79 126 -232h-242q-3 61 -39 98t-92 37q-156 0 -156 -273q0 -262 164 -262
q121 0 127 144h248z" />
    <glyph glyph-name="trademark" unicode="&#x2122;" 
d="M1497 909h-182v367l-137 -367h-70l-137 367v-367h-183v559h256l99 -266l98 266h256v-559zM690 1317h-162v-408h-202v408h-162v151h526v-151z" />
    <glyph glyph-name="acute" unicode="&#xb4;" 
d="M1227 1411q0 -11 -13 -18l-509 -306q-14 -8 -31 -8q-16 0 -27 6l-155 89q-13 6 -13 18q0 9 6 14l424 340q11 8 33 8q14 0 23 -4l245 -120q17 -9 17 -19z" />
    <glyph glyph-name="dieresis" unicode="&#xa8;" 
d="M1493 1243q0 -65 -102 -105q-89 -36 -201 -36t-202 36q-103 40 -103 105t103 107q91 36 202 36t201 -36q102 -42 102 -107zM821 1243q0 -65 -102 -105q-89 -36 -201 -36t-202 36q-103 40 -103 105t103 107q91 36 202 36t201 -36q102 -42 102 -107z" />
    <glyph glyph-name="notequal" unicode="&#x2260;" 
d="M1452 244h-704l-242 -299l-199 159l113 140h-166v262h340l170 211h-510v260h690l244 301l196 -162l-112 -139h180v-260h-358l-172 -211h530v-262z" />
    <glyph glyph-name="AE" unicode="&#xc6;" horiz-adv-x="3248" 
d="M3168 4q0 -24 -41 -24l-1611 -3q-42 0 -41 25l4 258h-529l-151 -235q-9 -15 -37 -15l-641 -2q-41 0 -41 25q0 6 944 1368q10 14 41 14h2062q41 0 41 -26v-279q0 -25 -41 -25h-921l-2 -231h735q41 0 41 -25v-280q0 -25 -41 -25h-741l-5 -215h934q41 0 41 -24v-281z
M1481 1075q-168 -256 -322 -495h320z" />
    <glyph glyph-name="Oslash" unicode="&#xd8;" horiz-adv-x="2324" 
d="M2277 627q0 -293 -286 -507q-305 -229 -774 -229q-124 0 -218 9l-34 -58q-10 -16 -37 -16l-445 -8q-43 -1 -43 24q19 37 95 162q-488 194 -488 631q0 330 320 550q335 230 870 230q76 0 156 -8l65 109q10 16 37 16l457 -4q41 -1 41 -25l-144 -233q204 -113 319 -293
q109 -170 109 -350zM1618 616q0 92 -64 175l-317 -512q174 17 283 124q98 97 98 213zM1114 954q-173 -17 -281 -125q-98 -97 -98 -213q0 -91 66 -176z" />
    <glyph glyph-name="infinity" unicode="&#x221e;" 
d="M1526 606q0 -171 -74 -292q-89 -144 -250 -144q-105 0 -203 84q-58 50 -149 170q-67 -129 -145 -191q-81 -63 -177 -63q-144 0 -245 126t-101 312q0 171 74 292q88 144 248 144q103 0 202 -85q55 -47 150 -168q137 253 324 253q143 0 244.5 -125.5t101.5 -312.5z
M1384 598q0 63 -48.5 108.5t-116.5 45.5q-124 0 -244 -191q80 -115 219 -115q76 0 129 37q61 43 61 115zM731 653q-81 115 -219 115q-83 0 -135.5 -43.5t-52.5 -110.5q0 -65 47 -108t118 -43q124 0 242 190z" />
    <glyph glyph-name="plusminus" unicode="&#xb1;" 
d="M1452 680h-459v-309h-280v309h-459v272h459v310h280v-310h459v-272zM1452 -41h-1198v272h1198v-272z" />
    <glyph glyph-name="lessequal" unicode="&#x2264;" 
d="M1452 301l-1198 371v237l1198 373v-283l-704 -208l704 -209v-281zM1454 -35h-1200v271h1200v-271z" />
    <glyph glyph-name="greaterequal" unicode="&#x2265;" 
d="M1452 672l-1196 -371v281l705 209l-705 208v283l1196 -373v-237zM1454 -35h-1200v271h1200v-271z" />
    <glyph glyph-name="yen" unicode="&#xa5;" horiz-adv-x="2197" 
d="M2116 1294q0 -7 -453 -569h141q40 0 39 -25l-6 -168q-1 -24 -43 -24l-305 2l-72 -86l387 -2q40 0 39 -25l-6 -168q-1 -25 -43 -24l-371 4l4 -162q1 -24 -36 -24l-631 -9q-41 0 -41 25l-4 176l-426 2q-41 0 -41 25l-2 164q0 10 11 17t28 7l430 -2l-66 90l-360 2
q-41 0 -41 25l-2 164q0 10 11 17t28 7l204 -2q-409 560 -409 567q0 27 41 27l635 -6q32 0 41 -16l284 -545l320 545q9 16 41 16h635q39 0 39 -25z" />
    <glyph glyph-name="mu" unicode="&#xb5;" horiz-adv-x="1372" 
d="M1327 1087l-158 -1087h-368l18 131q-37 -70 -82 -102.5t-106 -32.5t-105.5 31.5t-70.5 93.5l-72 -543h-412l209 1509h422l-84 -614q-3 -25 -4 -33v-20q0 -133 127 -133q79 0 124 52t60 161l84 587h418z" />
    <glyph glyph-name="mu" unicode="&#x3bc;" horiz-adv-x="1372" 
d="M1327 1087l-158 -1087h-368l18 131q-37 -70 -82 -102.5t-106 -32.5t-105.5 31.5t-70.5 93.5l-72 -543h-412l209 1509h422l-84 -614q-3 -25 -4 -33v-20q0 -133 127 -133q79 0 124 52t60 161l84 587h418z" />
    <glyph glyph-name="partialdiff" unicode="&#x2202;" horiz-adv-x="1139" 
d="M1098 768q0 -311 -141 -532q-165 -259 -459 -259q-211 0 -333 110q-128 115 -128 323q0 202 127 339.5t307 137.5q196 0 299 -172q45 229 45 360q0 213 -104 213q-59 0 -109 -92q-86 -158 -192 -158q-61 0 -102.5 36.5t-41.5 96.5q0 105 132 163q103 46 220 46
q224 0 352 -162.5t128 -449.5zM694 553q0 112 -34.5 171.5t-98.5 59.5q-91 0 -151 -139.5t-60 -355.5q0 -230 135 -230q116 0 171 203q38 136 38 291z" />
    <glyph glyph-name="summation" unicode="&#x2211;" horiz-adv-x="1583" 
d="M1534 -393h-1475v200l664 738l-643 629v299h1368v-353h-778l559 -557l-541 -600h846v-356z" />
    <glyph glyph-name="product" unicode="&#x220f;" horiz-adv-x="1688" 
d="M1538 -393h-473v1474h-453v-1474h-473v1866h1399v-1866z" />
    <glyph glyph-name="pi" unicode="&#x3c0;" horiz-adv-x="1716" 
d="M1702 1087l-41 -241h-180l-119 -846h-418l119 846h-227l-119 -846h-418l119 846h-29q-74 0 -90 -133h-258q36 215 129 294.5t311 79.5h1221z" />
    <glyph glyph-name="integral" unicode="&#x222b;" horiz-adv-x="1331" 
d="M1284 1350q0 -68 -46 -112t-116 -44q-135 0 -135 160v10q2 17 2 16q0 50 -35 50q-104 0 -127 -662q0 -33 -2 -86q-8 -266 -21 -382q-25 -220 -89 -370q-130 -303 -404 -303q-107 0 -178 50q-82 57 -82 159q0 156 166 156q131 0 131 -142q0 7 -2 -30v-23q0 -41 33 -41
q28 0 53 41q28 46 43 115q20 93 27 385q2 110 8 293q18 406 87 609q122 360 425 360q120 0 191 -58t71 -151z" />
    <glyph glyph-name="ordfeminine" unicode="&#xaa;" horiz-adv-x="1199" 
d="M1118 1192q0 -43 -26 -297q-3 -64 -17 -162q-7 -22 -41 -22l-231 -2q-41 -1 -41 24q0 11 3 29q4 22 5 29q-142 -31 -281 -31q-409 0 -409 201q0 115 212 171q157 42 376 42q88 0 139 -5v33q0 39 -41 65.5t-104 26.5q-75 0 -119 -33t-54 -34l-270 -25q-47 -4 -47 25
q0 7 2 10q120 199 465 199q479 0 479 -244zM793 1030q-44 2 -70 2q-225 0 -225 -78q0 -67 159 -67q48 0 121 8z" />
    <glyph glyph-name="ordmasculine" unicode="&#xba;" horiz-adv-x="1223" 
d="M1143 1063q0 -154 -115 -252q-130 -111 -373 -111q-266 0 -419 90q-156 91 -156 252q0 166 110 269q130 121 388 121q268 0 420 -104q145 -100 145 -265zM760 1057q0 110 -158 110q-78 0 -125 -47q-41 -41 -41 -92q0 -110 158 -110q83 0 128 46q38 39 38 93z" />
    <glyph glyph-name="Omega" unicode="&#x3a9;" 
d="M1671 0h-661v403q135 164 135 379q0 151 -70 249q-78 112 -223 112q-132 0 -211.5 -99t-79.5 -262q0 -215 135 -379v-403h-661v350h371q-287 163 -287 510q0 308 216 486q202 165 517 165q314 0 517 -166q218 -178 218 -485q0 -347 -287 -510h371v-350z" />
    <glyph glyph-name="Omega" unicode="&#x2126;" 
d="M1671 0h-661v403q135 164 135 379q0 151 -70 249q-78 112 -223 112q-132 0 -211.5 -99t-79.5 -262q0 -215 135 -379v-403h-661v350h371q-287 163 -287 510q0 308 216 486q202 165 517 165q314 0 517 -166q218 -178 218 -485q0 -347 -287 -510h371v-350z" />
    <glyph glyph-name="ae" unicode="&#xe6;" horiz-adv-x="2667" 
d="M2587 23q4 -35 -193 -57q-142 -15 -244 -15q-301 0 -559 84l-10 -82q-3 -22 -39 -23l-403 -2q-41 0 -41 25q0 -4 10 94q-200 -43 -406 -43q-267 0 -431 66q-191 78 -191 233q0 180 314 266q235 64 573 64q96 0 198 -8q4 62 4 51q0 53 -62 90t-151 37q-141 0 -204 -82
q-12 -15 -33 -16l-471 -41q-47 -5 -47 24q1 3 4 8q75 152 266.5 239t452.5 87q270 0 446 -55q221 188 541 188q321 0 499 -126q166 -119 166 -318q0 -203 -108 -295q-18 -15 -37 -15l-735 17q65 -209 413 -209q162 0 400 53h14q36 0 39 -22zM2142 698q0 123 -170 123
q-237 0 -278 -243l420 8q28 55 28 112zM1145 410q-87 4 -96 4q-334 0 -334 -115q0 -96 239 -96q79 0 170 10z" />
    <glyph glyph-name="oslash" unicode="&#xf8;" horiz-adv-x="1693" 
d="M1647 522q0 -232 -175 -380q-197 -169 -563 -169q-141 0 -266 19l-49 -76q-10 -15 -37 -16l-141 -9q-43 -2 -43 25q9 18 71 121q-397 128 -397 452q0 251 166 405q195 183 584 183q144 0 274 -22l51 82q11 17 37 16l154 -4q41 -1 41 -25q-11 -19 -76 -125
q369 -143 369 -477zM1065 512q0 53 -35 92l-188 -297q112 6 172 73q51 56 51 132zM836 674h-2q-115 0 -184 -71q-58 -59 -58 -134q0 -71 49 -113z" />
    <glyph glyph-name="questiondown" unicode="&#xbf;" horiz-adv-x="2122" 
d="M123 426q0 125 136 251q122 114 294 177q149 55 202 83q114 60 160 142q11 19 40 19h579q33 0 33 -27q0 -126 -143 -239q-122 -96 -310 -158q-268 -89 -268 -191q0 -84 178 -84q144 0 305 54q53 18 269 108q10 4 30 4q16 0 27 -8l393 -299q6 -5 6 -14q0 -10 -6 -15
q-155 -127 -418.5 -206.5t-525.5 -79.5q-438 0 -689 105q-292 124 -292 378zM904 1362q0 87 109 133q91 39 221 39q133 0 225 -40q111 -47 111 -138q0 -85 -108 -131q-91 -39 -222 -39t-225 40q-111 49 -111 136z" />
    <glyph glyph-name="exclamdown" unicode="&#xa1;" horiz-adv-x="1040" 
d="M184 -33l24 1024q1 25 39 25l549 -4q40 -1 39 -25l-37 -1020q-1 -24 -39 -24h-534q-42 0 -41 24zM190 1276q0 87 109 133q90 39 220 39q134 0 225 -40q111 -47 111 -138q0 -85 -108 -131q-91 -39 -221 -39q-132 0 -225 40q-111 49 -111 136z" />
    <glyph glyph-name="logicalnot" unicode="&#xac;" 
d="M1452 367h-272v235h-926v266h1198v-501z" />
    <glyph glyph-name="radical" unicode="&#x221a;" horiz-adv-x="1395" 
d="M1399 1565h-86l-588 -1606h-143l-301 827l-156 -59l-41 154l395 139l209 -600l483 1317h228v-172z" />
    <glyph glyph-name="florin" unicode="&#x192;" horiz-adv-x="2465" 
d="M2384 1389l-86 -302q-6 -20 -41 -20q-24 0 -79.5 4t-84.5 4q-369 0 -428 -166q-30 -85 -80 -256l424 -4q39 0 39 -26v-2l-39 -265q-3 -22 -41 -22l-483 4l-203 -629q-59 -183 -353 -290q-260 -95 -587 -95q-165 0 -236 19q-26 7 -26 22v6l88 301q6 21 41 21q24 0 77.5 -4
t82.5 -4q371 0 428 165q43 123 86 245q49 145 71 247l-276 2q-40 0 -39 25l10 272q1 25 39 25l367 -4l125 389q58 183 353 290q261 95 589 95q163 0 233 -19q29 -7 29 -24v-4z" />
    <glyph glyph-name="approxequal" unicode="&#x2248;" 
d="M1530 774q-202 -133 -371 -133q-90 0 -280 64q-197 65 -318 65q-83 0 -173.5 -36.5t-209.5 -119.5v299q221 140 410 140q104 0 296 -63.5t281 -63.5q162 0 365 149v-301zM1530 309q-105 -68 -195.5 -100.5t-177.5 -32.5q-90 0 -280 64q-197 65 -316 65q-158 0 -383 -158
v299q220 142 410 142q122 0 309 -64q193 -65 268 -65q159 0 365 149v-299z" />
    <glyph glyph-name="approxequal" unicode="&#x22f2;" 
d="M1530 774q-202 -133 -371 -133q-90 0 -280 64q-197 65 -318 65q-83 0 -173.5 -36.5t-209.5 -119.5v299q221 140 410 140q104 0 296 -63.5t281 -63.5q162 0 365 149v-301zM1530 309q-105 -68 -195.5 -100.5t-177.5 -32.5q-90 0 -280 64q-197 65 -316 65q-158 0 -383 -158
v299q220 142 410 142q122 0 309 -64q193 -65 268 -65q159 0 365 149v-299z" />
    <glyph glyph-name="Delta" unicode="&#x394;" horiz-adv-x="1505" 
d="M1509 0h-1515l518 1473h479zM958 309l-206 705l-207 -705h413z" />
    <glyph glyph-name="Delta" unicode="&#x2206;" horiz-adv-x="1505" 
d="M1509 0h-1515l518 1473h479zM958 309l-206 705l-207 -705h413z" />
    <glyph glyph-name="guillemotleft" unicode="&#xab;" horiz-adv-x="2002" 
d="M1921 928q0 -7 -10 -15l-551 -401l524 -332q10 -6 10 -18q0 -8 -88 -139q-9 -15 -39 -15q-15 0 -24 4l-768 359q-17 8 -19 18q-28 237 -28 238q0 9 12 16l782 424q12 6 27 6q24 0 35 -10q137 -128 137 -135zM1071 928q0 -10 -6 -15l-551 -401l524 -332q11 -6 11 -18
q0 -2 -93 -139q-9 -15 -36 -15q-14 0 -23 4l-772 359q-17 8 -19 18q-26 220 -26 238q0 8 14 16l783 424q11 6 26 6q24 0 35 -10q133 -124 133 -135z" />
    <glyph glyph-name="guillemotright" unicode="&#xbb;" horiz-adv-x="2002" 
d="M1921 625q0 -38 -12 -117q-18 -112 -19 -119q-1 -13 -12 -18l-772 -359q-9 -4 -25 -4q-27 0 -37 15q-90 134 -90 139q0 12 11 18l524 332l-551 401q-10 8 -10 15t137 135q11 10 33 10q15 0 26 -6l785 -424q12 -7 12 -18zM1071 625q0 -16 -27 -236q-1 -11 -16 -18
l-770 -359q-9 -4 -27 -4q-27 0 -36 15q-89 131 -89 139q0 12 11 18l524 332l-551 401q-10 8 -10 15q0 9 135 135q11 10 37 10q15 0 27 -6l780 -424q12 -7 12 -18z" />
    <glyph glyph-name="ellipsis" unicode="&#x2026;" horiz-adv-x="2488" 
d="M2386 127q0 -88 -99 -133q-83 -39 -210 -39q-130 0 -215 39q-101 48 -101 139q0 86 98 131q84 39 212 39t214 -40q101 -48 101 -136zM1556 127q0 -88 -98 -133q-83 -39 -211 -39q-130 0 -214 39q-101 48 -101 139q0 86 98 131q83 39 211 39t215 -40q100 -48 100 -136z
M727 127q0 -88 -99 -133q-83 -39 -210 -39q-130 0 -215 39q-101 48 -101 139q0 86 98 131q84 39 212 39t214 -40q101 -48 101 -136z" />
    <glyph glyph-name="Agrave" unicode="&#xc0;" horiz-adv-x="2156" 
d="M2142 -49q0 -25 -39 -25l-643 6q-33 1 -39 21l-78 270h-526l-78 -235q-6 -21 -41 -21l-645 -2q-39 0 -39 25v6l527 1390q7 21 41 21h1003q34 0 41 -21zM1245 551l-147 500l-170 -500h317zM1328 1663q0 -12 -13 -18l-155 -89q-11 -6 -27 -6q-15 0 -28 8l-512 306
q-13 7 -13 18q0 13 13 19l249 120q9 4 27 4t29 -8l424 -340q6 -5 6 -14z" />
    <glyph glyph-name="Atilde" unicode="&#xc3;" horiz-adv-x="2156" 
d="M2142 -49q0 -25 -39 -25l-643 6q-33 1 -39 21l-78 270h-526l-78 -235q-6 -21 -41 -21l-645 -2q-39 0 -39 25v6l527 1390q7 21 41 21h1003q34 0 41 -21zM1245 551l-147 500l-170 -500h317zM1648 1598q0 -47 -250 -47q-119 0 -346 43t-346 43q-23 0 -68.5 -5t-68.5 -5
q-43 0 -41 24l18 221q2 26 115 39q74 8 139 8q112 0 325 -38.5t324 -38.5q28 0 81 7t77 7q41 0 41 -25v-233z" />
    <glyph glyph-name="Otilde" unicode="&#xd5;" horiz-adv-x="2324" 
d="M2277 627q0 -293 -286 -507q-305 -229 -774 -229q-550 0 -865 206q-305 200 -305 538q0 330 320 550q335 230 870 230q475 0 773 -256q267 -230 267 -532zM1618 616q0 127 -114 228q-129 112 -328 112q-200 0 -327 -112q-114 -100 -114 -228q0 -127 114 -227
q127 -113 327 -113q199 0 328 113q114 101 114 227zM1715 1618q0 -47 -250 -47q-119 0 -346 43t-346 43q-23 0 -68.5 -5t-68.5 -5q-43 0 -41 24l18 221q2 26 115 39q74 8 139 8q112 0 325 -38.5t324 -38.5q28 0 81 7t77 7q41 0 41 -25v-233z" />
    <glyph glyph-name="OE" unicode="&#x152;" horiz-adv-x="3409" 
d="M3328 -12q0 -25 -39 -25h-1647q-185 -49 -393 -49q-548 0 -862 205q-307 200 -307 538q0 331 321 550q334 229 869 229q137 0 368 -39h1651q39 0 39 -25v-278q0 -25 -39 -25h-922l-2 -231h736q39 0 39 -25v-281q0 -24 -39 -24h-744l-2 -215h934q39 0 39 -25v-280z
M1653 637q0 127 -116 228q-129 114 -329 114q-199 0 -326 -114q-112 -101 -112 -228t112 -227q127 -113 326 -113q200 0 329 113q116 100 116 227z" />
    <glyph glyph-name="oe" unicode="&#x153;" horiz-adv-x="2660" 
d="M2580 14q4 -34 -191 -56q-143 -15 -249 -15q-409 0 -682 135q-195 -131 -514 -131q-400 0 -632 136.5t-232 379.5q0 251 166 405q196 183 583 183q314 0 531 -99q222 195 549 195q331 0 504 -135q157 -122 157 -330q0 -180 -108 -274q-17 -15 -37 -15l-731 17
q64 -209 409 -209q173 0 400 51q9 2 12 2q38 0 41 -23zM2136 707q-5 106 -168 106q-241 0 -282 -244l413 9q13 0 27 44q12 40 12 71q0 9 -2 14zM1098 485q0 70 -58 114q-62 48 -174 48q-114 0 -183 -70q-58 -60 -58 -135q0 -161 231 -161q122 0 188 68q54 56 54 136z" />
    <glyph glyph-name="endash" unicode="&#x2013;" horiz-adv-x="1024" 
d="M944 350q0 -24 -39 -24h-786q-40 0 -39 26l12 279q1 24 41 24h772q39 0 39 -26v-279z" />
    <glyph glyph-name="emdash" unicode="&#x2014;" horiz-adv-x="2048" 
d="M2079 350q0 -24 -41 -24h-2028q-42 0 -41 26l15 279q1 24 41 24h2013q41 0 41 -26v-279z" />
    <glyph glyph-name="quotedblleft" unicode="&#x201c;" horiz-adv-x="1516" 
d="M1413 1137q0 -87 -98 -132q-83 -38 -211 -38q-129 0 -215 40q-101 47 -101 138q0 134 138 239q118 91 215 91q33 0 33 -31q0 -5 -17.5 -46.5t-17.5 -74.5v-8q111 -6 185 -45q89 -48 89 -133zM727 1137q0 -87 -98 -132q-83 -38 -211 -38q-129 0 -215 40q-101 47 -101 138
q0 134 138 239q118 91 215 91q32 0 32 -31q0 -5 -17 -46.5t-17 -74.5v-8q111 -6 184 -45q90 -48 90 -133z" />
    <glyph glyph-name="quotedblright" unicode="&#x201d;" horiz-adv-x="1516" 
d="M1413 1255q0 -134 -138 -239q-118 -90 -214 -90q-33 0 -33 30q0 5 17.5 46.5t17.5 74.5v8q-112 6 -185 45q-90 48 -90 134t98 131q83 39 212 39t214 -41q101 -47 101 -138zM727 1255q0 -134 -138 -239q-118 -90 -214 -90q-33 0 -33 30q0 5 17.5 46.5t17.5 74.5v8
q-112 6 -185 45q-90 48 -90 134t98 131q83 39 212 39t214 -41q101 -47 101 -138z" />
    <glyph glyph-name="quoteleft" unicode="&#x2018;" horiz-adv-x="829" 
d="M727 1137q0 -87 -98 -132q-83 -38 -211 -38q-129 0 -215 40q-101 47 -101 138q0 134 138 239q118 91 215 91q32 0 32 -31q0 -5 -17 -46.5t-17 -74.5v-8q111 -6 184 -45q90 -48 90 -133z" />
    <glyph glyph-name="quoteright" unicode="&#x2019;" horiz-adv-x="829" 
d="M727 1255q0 -134 -138 -239q-118 -90 -214 -90q-33 0 -33 30q0 5 17.5 46.5t17.5 74.5v8q-112 6 -185 45q-90 48 -90 134t98 131q83 39 212 39t214 -41q101 -47 101 -138z" />
    <glyph glyph-name="divide" unicode="&#xf7;" 
d="M1036 1032q0 -74 -54 -128t-130 -54t-129 53t-53 129t54 130.5t130 54.5q73 0 127.5 -56t54.5 -129zM1452 475h-1198v273h1198v-273zM1036 188q0 -73 -54 -127.5t-130 -54.5t-129 53t-53 129q0 78 53.5 130.5t130.5 52.5q74 0 128 -54.5t54 -128.5z" />
    <glyph glyph-name="lozenge" unicode="&#x25ca;" horiz-adv-x="1012" 
d="M1006 588l-500 -1065l-500 1065l500 1065zM891 588l-385 821l-385 -821l385 -821z" />
    <glyph glyph-name="ydieresis" unicode="&#xff;" horiz-adv-x="1851" 
d="M1769 1077q0 -610 -12 -868q-10 -210 -12 -234q-11 -141 -39 -231q-60 -192 -287 -300q-222 -106 -547 -106q-195 0 -294 27q-31 8 -31 23v315q0 25 47 25q25 0 79.5 -4.5t82.5 -4.5q397 0 397 175q0 30 -2 81q-2 61 -2 82q-195 -118 -436 -118q-362 0 -531 177
q-135 141 -135 378q0 112 13 264q12 144 24 289q2 24 43 22l524 -18q38 -2 37 -25q-10 -478 -10 -530q0 -224 188 -224q213 0 279 117l-10 690q-1 25 41 25l555 -2q38 0 38 -25zM1560 1386q0 -65 -102 -105q-89 -36 -201 -36t-202 36q-103 40 -103 105t103 107q91 36 202 36
t201 -36q102 -42 102 -107zM888 1386q0 -65 -102 -105q-89 -36 -201 -36t-202 36q-103 40 -103 105t103 107q91 36 202 36t201 -36q102 -42 102 -107z" />
    <glyph glyph-name="Ydieresis" unicode="&#x178;" horiz-adv-x="2210" 
d="M2179 1300q0 -5 -735 -921l10 -404q1 -24 -41 -24l-672 -8q-39 -1 -39 24v412q-671 923 -671 928q0 25 39 24l675 -6q33 0 41 -16l299 -578l338 578q10 16 37 16h680q39 0 39 -25zM1728 1571q0 -65 -102 -105q-89 -36 -201 -36t-202 36q-103 40 -103 105t103 107
q91 36 202 36t201 -36q102 -42 102 -107zM1056 1571q0 -65 -102 -105q-89 -36 -201 -36t-202 36q-103 40 -103 105t103 107q91 36 202 36t201 -36q102 -42 102 -107z" />
    <glyph glyph-name="fraction" unicode="&#x2044;" horiz-adv-x="2062" 
d="M1982 1417q0 -7 -8 -14l-1511 -1368q-13 -12 -29 -12l-309 -9q-45 -1 -45 25q0 7 8 14l1507 1381q14 12 33 12l314 -4q40 -1 40 -25z" />
    <glyph glyph-name="currency" unicode="&#xa4;" horiz-adv-x="2341" 
d="M2261 57q0 -9 -10 -16q-108 -76 -340 -116q-191 -34 -393 -34q-417 0 -720 127q-328 137 -409 379l-264 2q-40 1 -41 25l-4 104q-1 10 11.5 17.5t29.5 7.5h237q0 27 4 80h-237q-40 0 -41 24l-4 107q-1 10 12 18.5t29 8.5l278 -5q113 285 550 431q373 124 894 124
q77 0 82 -20l90 -354q8 -29 -43 -29q-23 0 -70.5 2t-70.5 2q-478 0 -703 -158l445 -2q39 0 39 -24q0 -1 -58 -117q-8 -16 -36 -16l-494 2q-6 -30 -6 -78l452 -2q41 0 41 -25q0 1 -57 -114q-9 -19 -41 -19l-315 2q157 -117 450 -117q160 0 289 29q100 22 262 82q11 4 21 4
q35 0 41 -18z" />
    <glyph glyph-name="guilsinglleft" unicode="&#x2039;" horiz-adv-x="1152" 
d="M1071 928q0 -10 -6 -15l-551 -401l524 -332q11 -6 11 -18q0 -2 -93 -139q-9 -15 -36 -15q-14 0 -23 4l-772 359q-17 8 -19 18q-26 220 -26 238q0 8 14 16l783 424q11 6 26 6q24 0 35 -10q133 -124 133 -135z" />
    <glyph glyph-name="guilsinglright" unicode="&#x203a;" horiz-adv-x="1152" 
d="M1071 625q0 -16 -27 -236q-1 -11 -16 -18l-770 -359q-9 -4 -27 -4q-27 0 -36 15q-89 131 -89 139q0 12 11 18l524 332l-551 401q-10 8 -10 15q0 9 135 135q11 10 37 10q15 0 27 -6l780 -424q12 -7 12 -18z" />
    <glyph glyph-name="fi" unicode="&#xf001;" horiz-adv-x="2455" 
d="M2374 1165q0 -91 -119 -153q-113 -58 -266 -58q-154 0 -269 60q-121 63 -121 155t119 153q112 58 264 58q155 0 270 -59q122 -63 122 -156zM2320 838l-26 -897q-1 -23 -41 -23l-553 -2q-42 0 -41 25l16 589l-784 9l6 -662q0 -25 -41 -24l-526 2q-43 0 -41 24l37 709
l-174 6q-34 1 -37 22q-1 3 -21 110q-14 75 -14 105q0 26 45 25l197 -6q-7 82 -7 199q0 253 190 400q212 165 630 165q176 0 278 -25q29 -7 29 -24v-314q0 -24 -35 -24q-28 0 -84.5 4t-85.5 4q-341 0 -356 -174q-8 -71 -19 -213l1419 16q17 0 28.5 -8t10.5 -18z" />
    <glyph glyph-name="fl" unicode="&#xf002;" horiz-adv-x="2412" 
d="M2331 1286l-21 -1368q0 -22 -37 -22l-579 -15q-45 -1 -45 25v649l-758 8l6 -686q0 -25 -41 -24l-526 2q-42 0 -41 24l37 733l-174 6q-34 2 -37 23q-1 2 -21 109q-14 75 -14 106q0 26 45 25l197 -7q-7 76 -7 183q0 253 209 400q223 157 645 157q183 0 285 -25
q27 -6 27 -24v-314q0 -24 -37 -24q-28 0 -84 4t-84 4q-378 0 -395 -174q-8 -63 -19 -189l785 -10v424q0 25 39 25h604q41 0 41 -25z" />
    <glyph glyph-name="daggerdbl" unicode="&#x2021;" horiz-adv-x="1024" 
d="M981 113h-305v-338h-330v338h-305v276h305v471h-305v268h305v345h330v-345h305v-268h-305v-471h305v-276z" />
    <glyph glyph-name="periodcentered" unicode="&#xb7;" horiz-adv-x="674" 
d="M553 717q0 -90 -63.5 -152.5t-153.5 -62.5q-93 0 -154 61t-61 154q0 94 61 155.5t154 61.5q91 0 154 -63t63 -154z" />
    <glyph glyph-name="periodcentered" unicode="&#x2219;" horiz-adv-x="674" 
d="M553 717q0 -90 -63.5 -152.5t-153.5 -62.5q-93 0 -154 61t-61 154q0 94 61 155.5t154 61.5q91 0 154 -63t63 -154z" />
    <glyph glyph-name="quotesinglbase" unicode="&#x201a;" horiz-adv-x="829" 
d="M727 125q0 -134 -138 -239q-118 -91 -214 -91q-33 0 -33 31q0 4 17.5 45.5t17.5 75.5v8q-112 5 -185 44q-90 48 -90 134q0 87 98 132q83 38 212 38t214 -40q101 -48 101 -138z" />
    <glyph glyph-name="quotedblbase" unicode="&#x201e;" horiz-adv-x="1516" 
d="M1413 125q0 -134 -138 -239q-118 -91 -214 -91q-33 0 -33 31q0 4 17.5 45.5t17.5 75.5v8q-112 5 -185 44q-90 48 -90 134q0 87 98 132q83 38 212 38t214 -40q101 -48 101 -138zM727 125q0 -134 -138 -239q-118 -91 -214 -91q-33 0 -33 31q0 4 17.5 45.5t17.5 75.5v8
q-112 5 -185 44q-90 48 -90 134q0 87 98 132q83 38 212 38t214 -40q101 -48 101 -138z" />
    <glyph glyph-name="perthousand" unicode="&#x2030;" horiz-adv-x="3792" 
d="M3711 377q0 -146 -142 -252q-151 -113 -384 -113q-275 0 -431 103q-151 100 -151 268q0 166 158 274q165 113 434 113q236 0 384 -128q132 -115 132 -265zM2570 377q0 -146 -143 -252q-152 -113 -385 -113q-275 0 -431 103q-151 100 -151 268q0 166 158 274
q165 113 434 113q236 0 385 -128q133 -115 133 -265zM2277 1417q0 -8 -6 -14l-1495 -1368q-13 -12 -31 -12l-309 -9q-43 -1 -43 25q0 9 6 14l1495 1381q14 12 33 12l309 -4q41 -1 41 -25zM1190 1053q0 -146 -143 -252q-152 -113 -385 -113q-275 0 -431 103
q-151 100 -151 268q0 166 158 274q165 113 434 113q236 0 385 -128q133 -115 133 -265zM3391 373q0 65 -58 116q-66 58 -169 58t-170 -58q-59 -51 -59 -116q0 -66 59 -118q67 -58 170 -58t169 58q58 52 58 118zM2251 373q0 65 -60 116q-66 58 -170 58q-103 0 -168 -58
q-59 -51 -59 -116q0 -66 59 -118q65 -58 168 -58q104 0 170 58q60 52 60 118zM870 1049q0 65 -59 116q-67 58 -170 58t-169 -58q-58 -51 -58 -116q0 -66 58 -118q66 -59 169 -59t170 59q59 52 59 118z" />
    <glyph glyph-name="Acircumflex" unicode="&#xc2;" horiz-adv-x="2156" 
d="M2142 -49q0 -25 -39 -25l-643 6q-33 1 -39 21l-78 270h-526l-78 -235q-6 -21 -41 -21l-645 -2q-39 0 -39 25v6l527 1390q7 21 41 21h1003q34 0 41 -21zM1245 551l-147 500l-170 -500h317zM1773 1643q0 -11 -117 -119q-11 -10 -37 -10q-10 0 -20 4l-514 215l-492 -203
q-10 -4 -22 -4q-20 0 -31 8l-127 95q-10 7 -10 16q0 10 10 16l477 301q9 6 27 7q328 14 315 14q14 0 27 -8l504 -314q10 -6 10 -18z" />
    <glyph glyph-name="Ecircumflex" unicode="&#xca;" horiz-adv-x="1834" 
d="M1753 25q0 -25 -41 -25h-1587q-41 0 -41 25l-4 1384q0 25 41 25h1591q41 0 41 -25v-279q0 -24 -41 -24h-924l-2 -234h736q41 0 41 -24v-279q0 -24 -41 -24h-740l-4 -217h934q41 0 41 -25v-278zM1572 1663q0 -11 -117 -119q-11 -10 -37 -10q-10 0 -20 4l-514 215
l-492 -203q-10 -4 -22 -4q-20 0 -31 8l-127 95q-10 7 -10 16q0 10 10 16l477 301q9 6 27 7q328 14 315 14q14 0 27 -8l504 -314q10 -6 10 -18z" />
    <glyph glyph-name="Aacute" unicode="&#xc1;" horiz-adv-x="2156" 
d="M2142 -49q0 -25 -39 -25l-643 6q-33 1 -39 21l-78 270h-526l-78 -235q-6 -21 -41 -21l-645 -2q-39 0 -39 25v6l527 1390q7 21 41 21h1003q34 0 41 -21zM1245 551l-147 500l-170 -500h317zM1596 1862q0 -11 -13 -18l-509 -306q-14 -8 -31 -8q-16 0 -27 6l-155 89
q-13 6 -13 18q0 9 6 14l424 340q11 8 33 8q14 0 23 -4l245 -120q17 -9 17 -19z" />
    <glyph glyph-name="Edieresis" unicode="&#xcb;" horiz-adv-x="1834" 
d="M1753 25q0 -25 -41 -25h-1587q-41 0 -41 25l-4 1384q0 25 41 25h1591q41 0 41 -25v-279q0 -24 -41 -24h-924l-2 -234h736q41 0 41 -24v-279q0 -24 -41 -24h-740l-4 -217h934q41 0 41 -25v-278zM1560 1694q0 -65 -102 -105q-89 -36 -201 -36t-202 36q-103 40 -103 105
t103 107q91 36 202 36t201 -36q102 -42 102 -107zM888 1694q0 -65 -102 -105q-89 -36 -201 -36t-202 36q-103 40 -103 105t103 107q91 36 202 36t201 -36q102 -42 102 -107z" />
    <glyph glyph-name="Egrave" unicode="&#xc8;" horiz-adv-x="1834" 
d="M1753 25q0 -25 -41 -25h-1587q-41 0 -41 25l-4 1384q0 25 41 25h1591q41 0 41 -25v-279q0 -24 -41 -24h-924l-2 -234h736q41 0 41 -24v-279q0 -24 -41 -24h-740l-4 -217h934q41 0 41 -25v-278zM1193 1643q0 -12 -13 -18l-155 -89q-11 -6 -27 -6q-15 0 -28 8l-512 306
q-13 7 -13 18q0 13 13 19l249 120q9 4 27 4t29 -8l424 -340q6 -5 6 -14z" />
    <glyph glyph-name="Iacute" unicode="&#xcd;" horiz-adv-x="903" 
d="M823 1362l-53 -1368q-1 -24 -41 -25l-608 -6q-17 0 -29 7t-12 18l31 1382q0 25 41 25l630 -6q42 -1 41 -27zM1025 1862q0 -11 -13 -18l-509 -306q-14 -8 -31 -8q-16 0 -27 6l-155 89q-13 6 -13 18q0 9 6 14l424 340q11 8 33 8q14 0 23 -4l245 -120q17 -9 17 -19z" />
    <glyph glyph-name="Icircumflex" unicode="&#xce;" horiz-adv-x="903" 
d="M823 1362l-53 -1368q-1 -24 -41 -25l-608 -6q-17 0 -29 7t-12 18l31 1382q0 25 41 25l630 -6q42 -1 41 -27zM1169 1663q0 -11 -117 -119q-11 -10 -37 -10q-10 0 -20 4l-514 215l-492 -203q-10 -4 -22 -4q-20 0 -31 8l-127 95q-10 7 -10 16q0 10 10 16l477 301q9 6 27 7
q328 14 315 14q14 0 27 -8l504 -314q10 -6 10 -18z" />
    <glyph glyph-name="Idieresis" unicode="&#xcf;" horiz-adv-x="903" 
d="M823 1362l-53 -1368q-1 -24 -41 -25l-608 -6q-17 0 -29 7t-12 18l31 1382q0 25 41 25l630 -6q42 -1 41 -27zM1124 1673q0 -65 -102 -105q-89 -36 -201 -36t-202 36q-103 40 -103 105t103 107q91 36 202 36t201 -36q102 -42 102 -107zM452 1673q0 -65 -102 -105
q-89 -36 -201 -36t-202 36q-103 40 -103 105t103 107q91 36 202 36t201 -36q102 -42 102 -107z" />
    <glyph glyph-name="Igrave" unicode="&#xcc;" horiz-adv-x="903" 
d="M823 1362l-53 -1368q-1 -24 -41 -25l-608 -6q-17 0 -29 7t-12 18l31 1382q0 25 41 25l630 -6q42 -1 41 -27zM757 1663q0 -12 -13 -18l-155 -89q-11 -6 -27 -6q-15 0 -28 8l-512 306q-13 7 -13 18q0 13 13 19l249 120q9 4 27 4t29 -8l424 -340q6 -5 6 -14z" />
    <glyph glyph-name="Oacute" unicode="&#xd3;" horiz-adv-x="2324" 
d="M2277 627q0 -293 -286 -507q-305 -229 -774 -229q-550 0 -865 206q-305 200 -305 538q0 330 320 550q335 230 870 230q475 0 773 -256q267 -230 267 -532zM1618 616q0 127 -114 228q-129 112 -328 112q-200 0 -327 -112q-114 -100 -114 -228q0 -127 114 -227
q127 -113 327 -113q199 0 328 113q114 101 114 227zM1496 1841q0 -11 -13 -18l-509 -306q-14 -8 -31 -8q-16 0 -27 6l-155 89q-13 6 -13 18q0 9 6 14l424 340q11 8 33 8q14 0 23 -4l245 -120q17 -9 17 -19z" />
    <glyph glyph-name="Ocircumflex" unicode="&#xd4;" horiz-adv-x="2324" 
d="M2277 627q0 -293 -286 -507q-305 -229 -774 -229q-550 0 -865 206q-305 200 -305 538q0 330 320 550q335 230 870 230q475 0 773 -256q267 -230 267 -532zM1618 616q0 127 -114 228q-129 112 -328 112q-200 0 -327 -112q-114 -100 -114 -228q0 -127 114 -227
q127 -113 327 -113q199 0 328 113q114 101 114 227zM1907 1622q0 -11 -117 -119q-11 -10 -37 -10q-10 0 -20 4l-514 215l-492 -203q-10 -4 -22 -4q-20 0 -31 8l-127 95q-10 7 -10 16q0 10 10 16l477 301q9 6 27 7q328 14 315 14q14 0 27 -8l504 -314q10 -6 10 -18z" />
    <glyph glyph-name="Ograve" unicode="&#xd2;" horiz-adv-x="2324" 
d="M2277 627q0 -293 -286 -507q-305 -229 -774 -229q-550 0 -865 206q-305 200 -305 538q0 330 320 550q335 230 870 230q475 0 773 -256q267 -230 267 -532zM1618 616q0 127 -114 228q-129 112 -328 112q-200 0 -327 -112q-114 -100 -114 -228q0 -127 114 -227
q127 -113 327 -113q199 0 328 113q114 101 114 227zM1496 1643q0 -12 -13 -18l-155 -89q-11 -6 -27 -6q-15 0 -28 8l-512 306q-13 7 -13 18q0 13 13 19l249 120q9 4 27 4t29 -8l424 -340q6 -5 6 -14z" />
    <glyph glyph-name="Uacute" unicode="&#xda;" horiz-adv-x="2123" 
d="M2042 1288l-31 -782q-24 -608 -981 -608q-950 0 -950 589q0 -73 18 807q1 26 43 25l647 -23q38 -1 37 -24l-28 -762q0 -123 57 -177t186 -54q160 0 218 91q36 56 38 175l17 733q0 24 37 25l651 10q17 0 29 -7t12 -18zM1529 1739q0 -11 -13 -18l-509 -306q-14 -8 -31 -8
q-16 0 -27 6l-155 89q-13 6 -13 18q0 9 6 14l424 340q11 8 33 8q14 0 23 -4l245 -120q17 -9 17 -19z" />
    <glyph glyph-name="Ucircumflex" unicode="&#xdb;" horiz-adv-x="2123" 
d="M2042 1288l-31 -782q-24 -608 -981 -608q-950 0 -950 589q0 -73 18 807q1 26 43 25l647 -23q38 -1 37 -24l-28 -762q0 -123 57 -177t186 -54q160 0 218 91q36 56 38 175l17 733q0 24 37 25l651 10q17 0 29 -7t12 -18zM1740 1581q0 -11 -117 -119q-11 -10 -37 -10
q-10 0 -20 4l-514 215l-492 -203q-10 -4 -22 -4q-20 0 -31 8l-127 95q-10 7 -10 16q0 10 10 16l477 301q9 6 27 7q328 14 315 14q14 0 27 -8l504 -314q10 -6 10 -18z" />
    <glyph glyph-name="Ugrave" unicode="&#xd9;" horiz-adv-x="2123" 
d="M2042 1288l-31 -782q-24 -608 -981 -608q-950 0 -950 589q0 -73 18 807q1 26 43 25l647 -23q38 -1 37 -24l-28 -762q0 -123 57 -177t186 -54q160 0 218 91q36 56 38 175l17 733q0 24 37 25l651 10q17 0 29 -7t12 -18zM1328 1520q0 -12 -13 -18l-155 -89q-11 -6 -27 -6
q-15 0 -28 8l-512 306q-13 7 -13 18q0 13 13 19l249 120q9 4 27 4t29 -8l424 -340q6 -5 6 -14z" />
    <glyph glyph-name="dotlessi" unicode="&#x131;" horiz-adv-x="940" 
d="M813 844l-35 -846q-1 -25 -39 -25l-555 -2q-43 0 -43 25l23 854q0 23 45 22l563 -4q42 0 41 -24z" />
    <glyph glyph-name="circumflex" unicode="&#x2c6;" 
d="M1538 1192q0 -11 -117 -119q-11 -10 -37 -10q-10 0 -20 4l-514 215l-492 -203q-10 -4 -22 -4q-20 0 -31 8l-127 95q-10 7 -10 16q0 10 10 16l477 301q9 6 27 7q328 14 315 14q14 0 27 -8l504 -314q10 -6 10 -18z" />
    <glyph glyph-name="tilde" unicode="&#x2dc;" 
d="M1413 1147q0 -47 -250 -47q-119 0 -346 43t-346 43q-23 0 -68.5 -5t-68.5 -5q-43 0 -41 24l18 221q2 26 115 39q74 8 139 8q112 0 325 -38.5t324 -38.5q28 0 81 7t77 7q41 0 41 -25v-233z" />
    <glyph glyph-name="macron" unicode="&#xaf;" 
d="M1413 1155q0 -10 -12 -17.5t-29 -7.5l-1038 21q-41 1 -41 27q0 19 14 229q2 25 41 25l1020 -7q41 0 41 -24z" />
    <glyph glyph-name="macron" unicode="&#x2c9;" 
d="M1413 1155q0 -10 -12 -17.5t-29 -7.5l-1038 21q-41 1 -41 27q0 19 14 229q2 25 41 25l1020 -7q41 0 41 -24z" />
    <glyph glyph-name="breve" unicode="&#x2d8;" 
d="M1470 1303q0 -8 -2 -11q-76 -99 -243 -158q-159 -57 -344 -57q-189 0 -364 58q-180 60 -275 157q-6 7 -6 13q0 12 71 66t90 54q16 0 29 -6q223 -102 436 -102t414 92q13 6 31 6q20 0 91.5 -50t71.5 -62z" />
    <glyph glyph-name="dotaccent" unicode="&#x2d9;" 
d="M1157 1243q0 -65 -102 -105q-89 -36 -201 -36t-202 36q-103 40 -103 105t103 107q91 36 202 36t201 -36q102 -42 102 -107z" />
    <glyph glyph-name="ring" unicode="&#x2da;" 
d="M1276 1264q0 -97 -134 -161q-124 -59 -288 -59t-289 59q-135 64 -135 161t135 161q126 60 289 60t288 -60q134 -64 134 -161zM1012 1264q0 33 -54 52q-47 17 -104 17q-58 0 -105 -17q-55 -20 -55 -52q0 -33 55 -53q47 -17 105 -17q57 0 104 17q54 20 54 53z" />
    <glyph glyph-name="cedilla" unicode="&#xb8;" 
d="M1534 -473q0 -142 -179 -227q-163 -78 -403 -78q-252 0 -461 84q-203 82 -315 223q-4 5 -4 10q0 25 41 25q9 0 20 -4q347 -123 558 -123q235 0 235 137q0 149 -473 160q-41 1 -41 24q0 4 266 283q12 12 33 12h242q41 0 41 -24q0 -2 -125 -197q235 -11 389 -85
q176 -83 176 -220z" />
    <glyph glyph-name="hungarumlaut" unicode="&#x2dd;" 
d="M1532 1411q0 -10 -14 -18l-514 -306q-14 -8 -27 -8q-16 0 -27 6l-157 89q-15 8 -15 18q0 6 10 14l424 340q11 8 33 8q16 0 25 -4l246 -120q16 -9 16 -19zM924 1411q0 -10 -15 -18l-510 -306q-13 -8 -30 -8q-16 0 -27 6l-154 89q-14 8 -14 18q0 8 8 14l422 340q10 8 35 8
q14 0 23 -4l245 -120q17 -9 17 -19z" />
    <glyph glyph-name="ogonek" unicode="&#x2db;" 
d="M1573 -383q0 -13 -12 -20q-125 -71 -334 -116q-198 -42 -375 -42q-296 0 -493 82q-226 94 -226 266q0 53 25 125q27 77 65 119q16 17 41 16l242 -12q37 -2 37 -25q0 -4 -20.5 -41.5t-20.5 -62.5q0 -95 167 -144q130 -38 306 -38q218 0 485 73q8 2 19 2q30 0 37 -18
q57 -163 57 -164z" />
    <glyph glyph-name="caron" unicode="&#x2c7;" 
d="M1538 1403q0 -12 -10 -19l-477 -299q-12 -7 -27 -8q-328 -14 -311 -14q-18 0 -31 8l-504 315q-10 7 -10 17q0 7 121 119q11 10 33 10q14 0 24 -4l514 -215l490 203q10 4 20 4q24 0 35 -9l123 -92q10 -7 10 -16z" />
    <glyph glyph-name="Lslash" unicode="&#x141;" horiz-adv-x="1770" 
d="M1741 25q0 -25 -45 -25h-1559q-38 0 -39 25l-8 520l-196 -49q-40 -10 -56 16l-157 262q-14 22 22 31l383 94l-6 469q0 24 41 25l629 8q38 0 38 -25l3 -303l217 53q37 10 53 -14l172 -258q16 -23 -23 -33l-419 -102l2 -391h903q45 0 45 -25v-278z" />
    <glyph glyph-name="lslash" unicode="&#x142;" horiz-adv-x="870" 
d="M1233 854q15 -23 -23 -33l-432 -106l-8 -645q0 -24 -41 -25l-582 -12q-42 -1 -43 24l-2 492l-208 -53q-40 -10 -56 16l-157 262q-14 22 22 31l399 98l-2 537q0 24 41 24h609q39 0 38 -24l-4 -369l224 55q37 10 53 -14z" />
    <glyph glyph-name="Scaron" unicode="&#x160;" horiz-adv-x="2113" 
d="M2032 1153q0 -9 -11 -16l-389 -277q-11 -8 -30 -8q-9 0 -23 6q-334 146 -598 146q-158 0 -158 -64q0 -42 308 -111q403 -90 572 -161q308 -130 308 -322q0 -239 -316 -349q-249 -87 -673 -87q-251 0 -509 69q-268 72 -423 187q-10 7 -10 16q0 10 10 17l387 266q12 8 33 8
q-15 0 214.5 -75.5t387.5 -75.5q178 0 178 71q0 50 -308 107q-406 76 -573 144q-309 127 -309 343q0 190 350 322q306 114 635 114q255 0 512 -67q269 -71 424 -187q11 -7 11 -16zM1740 1895q0 -12 -10 -19l-477 -299q-12 -7 -27 -8q-328 -14 -311 -14q-18 0 -31 8l-504 315
q-10 7 -10 17q0 7 121 119q11 10 33 10q14 0 24 -4l514 -215l490 203q10 4 20 4q24 0 35 -9l123 -92q10 -7 10 -16z" />
    <glyph glyph-name="scaron" unicode="&#x161;" horiz-adv-x="1649" 
d="M1602 915q0 -9 -310 -229q-11 -8 -28 -8q14 0 -168 59.5t-330 59.5q-131 0 -131 -52q0 -35 248 -90q326 -73 460 -129q248 -105 248 -260q0 -348 -792 -348q-198 0 -404 54q-216 55 -338 145q-10 7 -10 18q0 10 10 17l299 204q12 9 31 9q-8 0 174.5 -60.5t308.5 -60.5
q144 0 144 61q0 41 -247 87q-326 62 -459 116q-247 101 -247 274q0 153 279 258q243 93 510 93q199 0 404 -54q214 -57 337 -147q11 -8 11 -17zM1504 1587q0 -12 -10 -19l-477 -299q-12 -7 -27 -8q-328 -14 -311 -14q-18 0 -31 8l-504 315q-10 7 -10 17q0 7 121 119
q11 10 33 10q14 0 24 -4l514 -215l490 203q10 4 20 4q24 0 35 -9l123 -92q10 -7 10 -16z" />
    <glyph glyph-name="Zcaron" unicode="&#x17d;" horiz-adv-x="2052" 
d="M1972 -39q0 -25 -45 -24l-1790 14q-37 0 -39 24l-18 363q-1 8 14 16l1045 609l-1002 14q-37 0 -39 24l-18 345q-1 24 41 24l1810 2q41 0 41 -24v-385q0 -9 -14 -17l-1038 -602l1011 2q41 0 41 -24v-361zM1706 1854q0 -12 -10 -19l-477 -299q-12 -7 -27 -8
q-328 -14 -311 -14q-18 0 -31 8l-504 315q-10 7 -10 17q0 7 121 119q11 10 33 10q14 0 24 -4l514 -215l490 203q10 4 20 4q24 0 35 -9l123 -92q10 -7 10 -16z" />
    <glyph glyph-name="zcaron" unicode="&#x17e;" horiz-adv-x="1777" 
d="M1696 -4q0 -25 -39 -25l-1522 11q-39 0 -41 24q-14 262 -14 268q0 11 14 19l897 471l-856 10q-39 1 -41 25q-14 262 -14 252q0 24 41 24l1536 2q39 0 39 -24v-287q0 -12 -13 -18l-895 -467l869 4q39 0 39 -27v-262zM1572 1567q0 -12 -10 -19l-477 -299q-12 -7 -27 -8
q-328 -14 -311 -14q-18 0 -31 8l-504 315q-10 7 -10 17q0 7 121 119q11 10 33 10q14 0 24 -4l514 -215l490 203q10 4 20 4q24 0 35 -9l123 -92q10 -7 10 -16z" />
    <glyph glyph-name="brokenbar" unicode="&#xa6;" horiz-adv-x="1024" 
d="M653 674h-280v758h280v-758zM653 -350h-280v758h280v-758z" />
    <glyph glyph-name="Eth" unicode="&#xd0;" horiz-adv-x="2052" 
d="M2005 666q0 -428 -624 -625q-480 -152 -1256 -152q-41 0 -41 25l-2 600h-186q-43 0 -41 27l14 278q1 25 41 25h172l-2 573q0 25 41 25q777 0 1258 -152q626 -197 626 -624zM1274 666q0 127 -112 228q-126 116 -326 116v-166h110q41 0 41 -27v-278q0 -25 -41 -25h-110
v-192q201 0 327 115q111 101 111 229z" />
    <glyph glyph-name="eth" unicode="&#xf0;" horiz-adv-x="1760" 
d="M1679 426q0 -219 -186 -358q-200 -150 -549 -150q-400 0 -632 137t-232 379q0 244 184 402q207 178 590 186q-52 73 -152 131q-223 -109 -239 -109q-15 0 -29 11q-131 100 -131 108q0 15 70 48l94 42q-19 6 -215 56q-27 6 -27 24q0 9 285 271q11 10 35 10q36 0 187 -62
q118 -48 181 -79q182 88 201 88t89.5 -52.5t70.5 -64.5q0 -13 -156 -88q561 -366 561 -930zM1098 457q0 70 -58 114q-62 47 -174 47q-114 0 -183 -70q-58 -60 -58 -134q0 -162 231 -162q122 0 188 68q54 57 54 137z" />
    <glyph glyph-name="Yacute" unicode="&#xdd;" horiz-adv-x="2210" 
d="M2179 1300q0 -5 -735 -921l10 -404q1 -24 -41 -24l-672 -8q-39 -1 -39 24v412q-671 923 -671 928q0 25 39 24l675 -6q33 0 41 -16l299 -578l338 578q10 16 37 16h680q39 0 39 -25zM1664 1739q0 -11 -13 -18l-509 -306q-14 -8 -31 -8q-16 0 -27 6l-155 89q-13 6 -13 18
q0 9 6 14l424 340q11 8 33 8q14 0 23 -4l245 -120q17 -9 17 -19z" />
    <glyph glyph-name="yacute" unicode="&#xfd;" horiz-adv-x="1851" 
d="M1769 1077q0 -610 -12 -868q-10 -210 -12 -234q-11 -141 -39 -231q-60 -192 -287 -300q-222 -106 -547 -106q-195 0 -294 27q-31 8 -31 23v315q0 25 47 25q25 0 79.5 -4.5t82.5 -4.5q397 0 397 175q0 30 -2 81q-2 61 -2 82q-195 -118 -436 -118q-362 0 -531 177
q-135 141 -135 378q0 112 13 264q12 144 24 289q2 24 43 22l524 -18q38 -2 37 -25q-10 -478 -10 -530q0 -224 188 -224q213 0 279 117l-10 690q-1 25 41 25l555 -2q38 0 38 -25zM1429 1493q0 -11 -13 -18l-509 -306q-14 -8 -31 -8q-16 0 -27 6l-155 89q-13 6 -13 18
q0 9 6 14l424 340q11 8 33 8q14 0 23 -4l245 -120q17 -9 17 -19z" />
    <glyph glyph-name="Thorn" unicode="&#xde;" horiz-adv-x="2012" 
d="M1931 739q0 -264 -344 -424q-309 -143 -762 -151l-6 -144q-1 -21 -37 -22l-647 -27q-45 -2 -45 25l-10 1485q0 10 12 17.5t29 6.5l704 -14q39 -1 41 -25q2 -18 0 -143q548 -40 775 -143q290 -133 290 -441zM1290 702q0 109 -123 169q-114 57 -297 57h-24l-10 -432
q454 24 454 206z" />
    <glyph glyph-name="thorn" unicode="&#xfe;" horiz-adv-x="1935" 
d="M1853 485q0 -222 -218 -364q-222 -144 -580 -144q-172 0 -299 41l6 -561q0 -10 -13 -17.5t-30 -6.5l-510 8q-40 1 -41 24l-88 2089q-1 25 41 25l581 4q39 0 39 -24l9 -562q65 11 153 11q392 0 663 -140q287 -148 287 -383zM1149 424q0 190 -397 190l4 -335
q81 -13 137 -13q256 0 256 158z" />
    <glyph glyph-name="minus" unicode="&#x2212;" 
d="M1452 473h-1198v277h1198v-277z" />
    <glyph glyph-name="multiply" unicode="&#xd7;" 
d="M1495 184l-195 -194l-426 426l-425 -426l-195 194l426 426l-426 426l195 195l425 -426l426 426l195 -195l-426 -426z" />
    <glyph glyph-name="onesuperior" unicode="&#xb9;" horiz-adv-x="521" 
d="M440 1339l-26 -655q-1 -24 -41 -25l-252 -4q-17 0 -29 8t-12 19l14 661q1 26 41 25l264 -4q42 -1 41 -25z" />
    <glyph glyph-name="twosuperior" unicode="&#xb2;" horiz-adv-x="1115" 
d="M1034 1176q0 -106 -151 -177q-78 -36 -281 -88q-151 -39 -151 -67v-8h483q41 0 41 -25v-127q0 -25 -41 -25h-813q-41 0 -41 25v96q0 129 157 210q90 47 292 96q157 39 157 63q0 43 -98 43q-78 0 -185.5 -39t-109.5 -39q-22 0 -35 10q-174 133 -174 142q0 8 10 16
q74 58 201 94.5t250 36.5q489 0 489 -237z" />
    <glyph glyph-name="threesuperior" unicode="&#xb3;" horiz-adv-x="1108" 
d="M1028 844q0 -215 -491 -215q-117 0 -240 31q-130 32 -203 83q-14 11 -14 19q0 12 77 63q50 32 99 64q12 8 29 8l111.5 -35t187.5 -35q94 0 94 39q0 66 -238 66q-43 0 -43 24v117q0 25 74 25q207 0 207 67q0 35 -86 35q-90 0 -200.5 -35t-106.5 -35q-22 0 -33 9
q-172 122 -172 133q0 9 10 16q73 52 207 84q125 31 244 31q164 0 315 -56q172 -65 172 -159q0 -109 -172 -176q172 -70 172 -168z" />
    <glyph glyph-name="onehalf" unicode="&#xbd;" horiz-adv-x="2338" 
d="M2257 530q0 -105 -151 -175q-78 -36 -281 -88q-152 -39 -152 -66v-8h484q41 0 41 -25v-127q0 -25 -41 -25h-814q-40 0 -40 25v96q0 129 157 210q90 47 292 96q157 39 157 63q0 43 -94 43q-78 0 -187.5 -39t-111.5 -39q-22 0 -35 10q-174 133 -174 142q0 8 10 16
q73 58 202 95q126 36 248 36q490 0 490 -240zM1982 1417q0 -7 -8 -14l-1511 -1368q-13 -12 -29 -12l-309 -9q-45 -1 -45 25q0 7 8 14l1507 1381q14 12 33 12l314 -4q40 -1 40 -25zM629 1339l-27 -655q-1 -24 -41 -25l-252 -4q-16 0 -28.5 8t-12.5 19l15 661q0 26 39 25
l266 -4q42 -1 41 -25z" />
    <glyph glyph-name="onequarter" unicode="&#xbc;" horiz-adv-x="2146" 
d="M2066 199q0 -22 -44 -25q7 0 -68 0l-2 -131q-1 -24 -37 -25l-256 -4q-41 0 -41 25v135h-553q-41 0 -41 25q0 4 6 12l404 496q11 14 36 14l451 4q17 0 29 -7t12 -18l-4 -368q71 0 66 0q42 -3 42 -25v-108zM1982 1417q0 -7 -8 -14l-1511 -1368q-13 -12 -29 -12l-309 -9
q-45 -1 -45 25q0 7 8 14l1507 1381q14 12 33 12l314 -4q40 -1 40 -25zM629 1339l-27 -655q-1 -24 -41 -25l-252 -4q-16 0 -28.5 8t-12.5 19l15 661q0 26 39 25l266 -4q42 -1 41 -25zM1618 332l-2 198q-55 -66 -166 -198h168z" />
    <glyph glyph-name="threequarters" unicode="&#xbe;" horiz-adv-x="2469" 
d="M2388 199q0 -22 -43 -25q7 0 -68 0l-4 -131q0 -24 -39 -25l-252 -4q-45 0 -45 25v135h-551q-38 0 -38 25q0 9 2 12l403 496q12 14 37 14l451 4q16 0 29.5 -7.5t13.5 -17.5l-7 -368q73 0 68 0q43 -3 43 -25v-108zM2300 1417q0 -9 -6 -14l-1508 -1368q-12 -12 -34 -12
l-310 -9q-39 -1 -39 25q0 9 7 14l1507 1381q14 12 35 12l309 -4q39 -1 39 -25zM1028 844q0 -215 -491 -215q-117 0 -240 31q-130 32 -203 83q-14 11 -14 19q0 12 77 63q50 32 99 64q12 8 29 8l111.5 -35t187.5 -35q94 0 94 39q0 66 -238 66q-43 0 -43 24v117q0 25 74 25
q207 0 207 67q0 35 -86 35q-90 0 -200.5 -35t-106.5 -35q-22 0 -33 9q-172 122 -172 133q0 9 10 16q73 52 207 84q125 31 244 31q164 0 315 -56q172 -65 172 -159q0 -109 -172 -176q172 -70 172 -168zM1937 332v198q-53 -66 -163 -198h163z" />
    <glyph glyph-name="franc" unicode="&#x20a3;" horiz-adv-x="3174" 
d="M1782 1354l-2 -279q0 -25 -45 -24l-919 6l-6 -234l735 -4q41 0 41 -24l-4 -279q-1 -25 -43 -24l-740 4l-8 -519q0 -24 -39 -24l-618 2q-41 0 -41 25l18 1384q1 25 39 25l1594 -9q39 0 38 -26zM3142 799q1 -27 -41 -27q-414 0 -572 -137l53 -625q0 -24 -38 -24l-541 -6
q-43 -1 -45 24l-84 1139q-2 24 41 24h528q42 0 43 -22l13 -164q251 127 507 127q124 0 125 -29z" />
    <glyph glyph-name="Gbreve" unicode="&#x11e;" horiz-adv-x="2163" 
d="M2083 123q0 -11 -10 -19q-119 -79 -372 -123q-212 -36 -425 -36q-548 0 -883 190q-346 197 -346 533q0 409 467 627q424 198 1122 198q81 0 86 -20l95 -386q6 -26 -43 -26q-24 0 -72.5 2t-73.5 2q-377 0 -605 -90q-271 -107 -271 -324q0 -309 440 -309q110 0 188 14
l-10 174l-295 -4q-17 0 -29 8t-12 19l6 197q1 23 37 24l924 37q44 2 45 -23zM1772 1795q0 -8 -2 -11q-76 -99 -243 -158q-159 -57 -344 -57q-189 0 -364 58q-180 60 -275 157q-6 7 -6 13q0 12 71 66t90 54q16 0 29 -6q223 -102 436 -102t414 92q13 6 31 6q20 0 91.5 -50
t71.5 -62z" />
    <glyph glyph-name="gbreve" unicode="&#x11f;" horiz-adv-x="1834" 
d="M1753 1087q9 -489 -12 -894q-10 -190 -13 -219q-11 -128 -38 -218q-59 -192 -287 -301q-223 -106 -547 -106q-190 0 -295 26q-31 8 -31 25v313q0 25 48 25q24 0 79 -4t82 -4q396 0 396 176v145q-125 -26 -269 -26q-365 0 -592 139t-227 362q0 235 267 371
q250 129 642 129q75 0 162 -10v76q0 24 41 24l553 -2q41 0 41 -27zM1128 317l-4 342q-374 -5 -374 -192q0 -154 294 -154q27 0 84 4zM1537 1446q0 -8 -2 -11q-76 -99 -243 -158q-159 -57 -344 -57q-189 0 -364 58q-180 60 -275 157q-6 7 -6 13q0 12 71 66t90 54q16 0 29 -6
q223 -102 436 -102t414 92q13 6 31 6q20 0 91.5 -50t71.5 -62z" />
    <glyph glyph-name="Idotaccent" unicode="&#x130;" horiz-adv-x="903" 
d="M823 1362l-53 -1368q-1 -24 -41 -25l-608 -6q-17 0 -29 7t-12 18l31 1382q0 25 41 25l630 -6q42 -1 41 -27zM788 1673q0 -65 -102 -105q-89 -36 -201 -36t-202 36q-103 40 -103 105t103 107q91 36 202 36t201 -36q102 -42 102 -107z" />
    <glyph glyph-name="Scedilla" unicode="&#x15e;" horiz-adv-x="2113" 
d="M2032 1153q0 -9 -11 -16l-389 -277q-11 -8 -30 -8q-9 0 -23 6q-334 146 -598 146q-158 0 -158 -64q0 -42 308 -111q403 -90 572 -161q308 -130 308 -322q0 -399 -842 -434l-65 -100q235 -11 388 -85q175 -83 175 -221q0 -142 -177 -227q-163 -78 -403 -78q-252 0 -461 84
q-203 82 -315 223q-4 6 -4 11q0 24 41 24q9 0 21 -4q346 -123 557 -123q235 0 235 138q0 148 -475 159q-39 1 -39 25q0 12 168 184q-468 53 -725 244q-10 7 -10 16q0 10 10 17l387 266q12 8 33 8q-15 0 214.5 -75.5t387.5 -75.5q178 0 178 71q0 50 -308 107
q-406 76 -573 144q-309 127 -309 343q0 190 350 322q306 114 635 114q255 0 512 -67q269 -71 424 -187q11 -7 11 -16z" />
    <glyph glyph-name="scedilla" unicode="&#x15f;" horiz-adv-x="1649" 
d="M1602 915q0 -9 -310 -229q-11 -8 -28 -8q14 0 -168 59.5t-330 59.5q-131 0 -131 -52q0 -35 248 -90q326 -73 460 -129q248 -105 248 -260q0 -312 -651 -344l-72 -110q235 -11 389 -85q175 -83 175 -221q0 -142 -178 -227q-163 -78 -402 -78q-252 0 -461 84
q-204 82 -315 223q-4 6 -4 11q0 24 41 24q9 0 20 -4q347 -123 557 -123q236 0 236 138q0 148 -473 159q-41 1 -41 25q0 10 180 194q-349 48 -535 185q-10 7 -10 18q0 10 10 17l299 204q12 9 31 9q-8 0 174.5 -60.5t308.5 -60.5q144 0 144 61q0 41 -247 87q-326 62 -459 116
q-247 101 -247 274q0 153 279 258q243 93 510 93q199 0 404 -54q214 -57 337 -147q11 -8 11 -17z" />
    <glyph glyph-name="Cacute" unicode="&#x106;" horiz-adv-x="2160" 
d="M2079 119q0 -9 -11 -17q-115 -81 -360 -126q-206 -37 -418 -37q-548 0 -889 192q-354 200 -354 537q0 409 467 627q423 198 1122 198q81 0 86 -20l95 -386q6 -26 -43 -26q-25 0 -74 2t-74 2q-369 0 -597 -86q-277 -104 -277 -315q0 -152 160 -235q151 -77 405 -77
q280 0 592 119q16 6 22 6q35 0 41 -20zM1294 1841q0 -11 -13 -18l-509 -306q-14 -8 -31 -8q-16 0 -27 6l-155 89q-13 6 -13 18q0 9 6 14l424 340q11 8 33 8q14 0 23 -4l245 -120q17 -9 17 -19z" />
    <glyph glyph-name="cacute" unicode="&#x107;" horiz-adv-x="1387" 
d="M1339 262l-18 -233q-1 -17 -31 -23q-78 -16 -246 -16q-396 0 -677 117q-320 134 -320 364q0 268 243 425q247 159 681 159q200 0 305 -29q27 -7 27 -22v-342q0 -25 -33 -25q-30 0 -91 4t-92 4q-421 0 -421 -196q0 -173 411 -173q36 0 107.5 6.5t107.5 6.5h8q41 0 39 -27z
M1227 1452q0 -11 -13 -18l-509 -306q-14 -8 -31 -8q-16 0 -27 6l-155 89q-13 6 -13 18q0 9 6 14l424 340q11 8 33 8q14 0 23 -4l245 -120q17 -9 17 -19z" />
    <glyph glyph-name="Ccaron" unicode="&#x10c;" horiz-adv-x="2160" 
d="M2079 119q0 -9 -11 -17q-115 -81 -360 -126q-206 -37 -418 -37q-548 0 -889 192q-354 200 -354 537q0 409 467 627q423 198 1122 198q81 0 86 -20l95 -386q6 -26 -43 -26q-25 0 -74 2t-74 2q-369 0 -597 -86q-277 -104 -277 -315q0 -152 160 -235q151 -77 405 -77
q280 0 592 119q16 6 22 6q35 0 41 -20zM1538 1895q0 -12 -10 -19l-477 -299q-12 -7 -27 -8q-328 -14 -311 -14q-18 0 -31 8l-504 315q-10 7 -10 17q0 7 121 119q11 10 33 10q14 0 24 -4l514 -215l490 203q10 4 20 4q24 0 35 -9l123 -92q10 -7 10 -16z" />
    <glyph glyph-name="ccaron" unicode="&#x10d;" horiz-adv-x="1387" 
d="M1339 262l-18 -233q-1 -17 -31 -23q-78 -16 -246 -16q-396 0 -677 117q-320 134 -320 364q0 268 243 425q247 159 681 159q200 0 305 -29q27 -7 27 -22v-342q0 -25 -33 -25q-30 0 -91 4t-92 4q-421 0 -421 -196q0 -173 411 -173q36 0 107.5 6.5t107.5 6.5h8q41 0 39 -27z
M1404 1464q0 -12 -10 -19l-477 -299q-12 -7 -27 -8q-328 -14 -311 -14q-18 0 -31 8l-504 315q-10 7 -10 17q0 7 121 119q11 10 33 10q14 0 24 -4l514 -215l490 203q10 4 20 4q24 0 35 -9l123 -92q10 -7 10 -16z" />
    <glyph glyph-name="dcroat" unicode="&#x111;" horiz-adv-x="1901" 
d="M2161 1163q0 -24 -41 -24h-297l-111 -1225q-2 -22 -39 -23l-512 -2q-16 0 -27.5 7.5t-11.5 17.5l2 131q-123 -37 -278 -37q-354 0 -576.5 141.5t-222.5 360.5q0 240 283 388q267 140 667 140q87 0 172 -14l5 115h-340q-44 0 -41 26l14 176q2 25 39 25h338l6 129
q1 25 43 25l582 -11q41 0 38 -26l-10 -117h277q41 0 41 -27v-176zM1153 643q-403 0 -403 -192q0 -154 258 -154q70 0 131 8z" />
    <glyph glyph-name="nonbreakingspace" unicode="&#xa0;" horiz-adv-x="512" 
 />
    <glyph glyph-name="apple" unicode="&#xf000;" horiz-adv-x="1618" 
d="M1167 1552q0 -131 -103 -234.5t-204 -103.5h-8h-8q-3 1 -8 3q-1 4 -2 14v22q0 132 102 237q96 99 229 124q1 -7 2 -23v-39zM1505 403q-90 -195 -152 -279q-118 -159 -257 -159q-46 0 -129.5 33t-124.5 33q-44 0 -130 -33t-128 -33q-129 0 -258 176q-213 291 -213 596
q0 211 117 349q124 145 331 145q67 0 156 -35q84 -33 123 -33q36 0 121 33q89 35 153 35q112 0 199 -39t160 -123q-201 -128 -201 -328q0 -114 59 -199.5t174 -138.5z" />
    <glyph glyph-name="sfthyphen" unicode="&#xad;" horiz-adv-x="922" 
d="M842 350q0 -24 -41 -24h-680q-42 0 -41 26l14 279q1 24 41 24h666q41 0 41 -26v-279z" />
    <glyph glyph-name="Euro" unicode="&#x20ac;" horiz-adv-x="2341" 
d="M2274 57q0 -9 -10 -16q-108 -76 -340 -116q-191 -34 -393 -34q-417 0 -720 127q-328 137 -409 379l-264 2q-40 1 -41 25l-4 104q-1 10 11.5 17.5t29.5 7.5h237q0 27 4 80h-237q-40 0 -41 24l-4 107q-1 10 12 18.5t29 8.5l278 -5q113 285 550 431q373 124 894 124
q77 0 82 -20l90 -354q8 -29 -43 -29q-23 0 -70.5 2t-70.5 2q-478 0 -703 -158l445 -2q39 0 39 -24q0 -1 -58 -117q-8 -16 -36 -16l-494 2q-6 -30 -6 -78l452 -2q41 0 41 -25q0 1 -57 -114q-9 -19 -41 -19l-315 2q157 -117 450 -117q160 0 289 29q100 22 262 82q11 4 21 4
q35 0 41 -18z" />
    </font>
</defs>
</svg>
